<svg width="180" height="125" viewBox="0 0 180 125" fill="none" xmlns="http://www.w3.org/2000/svg">
<path d="M117.705 67.6001C118.877 67.6001 119.976 67.8198 121.001 68.2593C122.026 68.6987 122.92 69.2993 123.682 70.061C124.443 70.8228 125.044 71.7163 125.483 72.7417C125.923 73.7671 126.143 74.8657 126.143 76.0376C126.143 77.2095 125.923 78.3081 125.483 79.3335C125.044 80.3589 124.443 81.2524 123.682 82.0142C122.92 82.7759 122.026 83.3765 121.001 83.8159C119.976 84.2554 118.877 84.4751 117.705 84.4751C116.533 84.4751 115.435 84.2554 114.409 83.8159C113.384 83.3765 112.49 82.7759 111.729 82.0142C110.967 81.2524 110.366 80.3589 109.927 79.3335C109.487 78.3081 109.268 77.2095 109.268 76.0376C109.268 75.1294 109.429 74.1919 109.751 73.2251H86.2842C86.6064 74.1919 86.7676 75.1294 86.7676 76.0376C86.7676 77.2095 86.5479 78.3081 86.1084 79.3335C85.6689 80.3589 85.0684 81.2524 84.3066 82.0142C83.5449 82.7759 82.6514 83.3765 81.626 83.8159C80.6006 84.2554 79.502 84.4751 78.3301 84.4751C77.1582 84.4751 76.0596 84.2554 75.0342 83.8159C74.0088 83.3765 73.1152 82.7759 72.3535 82.0142C71.5918 81.2524 70.9912 80.3589 70.5518 79.3335C70.1123 78.3081 69.8926 77.2095 69.8926 76.0376C69.8926 74.4263 70.3174 72.9321 71.167 71.5552C72.0166 70.1782 73.1885 69.1382 74.6826 68.4351L55.6982 11.3501H47.3926V5.7251H59.7412L63.4766 16.9751H137.393L124.297 56.3501H76.6162L80.3516 67.6001H117.705ZM65.3662 22.6001L74.7266 50.7251H120.21L129.57 22.6001H65.3662ZM81.1426 76.0376C81.1426 75.2759 80.8643 74.6167 80.3076 74.0601C79.751 73.5034 79.0918 73.2251 78.3301 73.2251C77.5684 73.2251 76.9092 73.5034 76.3525 74.0601C75.7959 74.6167 75.5176 75.2759 75.5176 76.0376C75.5176 76.7993 75.7959 77.4585 76.3525 78.0151C76.9092 78.5718 77.5684 78.8501 78.3301 78.8501C79.0918 78.8501 79.751 78.5718 80.3076 78.0151C80.8643 77.4585 81.1426 76.7993 81.1426 76.0376ZM117.705 78.8501C118.467 78.8501 119.126 78.5718 119.683 78.0151C120.239 77.4585 120.518 76.7993 120.518 76.0376C120.518 75.2759 120.239 74.6167 119.683 74.0601C119.126 73.5034 118.467 73.2251 117.705 73.2251C116.943 73.2251 116.284 73.5034 115.728 74.0601C115.171 74.6167 114.893 75.2759 114.893 76.0376C114.893 76.7993 115.171 77.4585 115.728 78.0151C116.284 78.5718 116.943 78.8501 117.705 78.8501Z" fill="#FEFEFE"/>
<ellipse opacity="0.1" cx="90" cy="119.5" rx="90" ry="5.4" fill="#E1E1E1"/>
</svg>
