<svg width="25" height="25" viewBox="0 0 25 25" fill="none" xmlns="http://www.w3.org/2000/svg">
<g id="codicon:trash">
<path id="Vector" fill-rule="evenodd" clip-rule="evenodd" d="M15.4014 5H19.9014V6.5H18.4014V20L16.9014 21.5H6.40137L4.90137 20V6.5H3.40137V5H7.90137V3.5C7.90137 3.10218 8.0594 2.72064 8.34071 2.43934C8.62201 2.15804 9.00354 2 9.40137 2H13.9014C14.2992 2 14.6807 2.15804 14.962 2.43934C15.2433 2.72064 15.4014 3.10218 15.4014 3.5V5ZM13.9014 3.5H9.40137V5H13.9014V3.5ZM6.40137 20H16.9014V6.5H6.40137V20ZM9.40137 8H7.90137V18.5H9.40137V8ZM10.9014 8H12.4014V18.5H10.9014V8ZM13.9014 8H15.4014V18.5H13.9014V8Z" fill="#FAFAFA"/>
</g>
</svg>
