<svg width="432" height="61" viewBox="0 0 432 61" fill="none" xmlns="http://www.w3.org/2000/svg">
<rect y="0.549805" width="432" height="60" rx="8" fill="#128CB3"/>
<g style="mix-blend-mode:darken">
<path d="M110.713 40.1928C110.445 40.1928 110.188 40.0863 109.998 39.8967C109.809 39.7071 109.702 39.4499 109.702 39.1817C109.702 38.9136 109.809 38.6564 109.998 38.4668C110.188 38.2771 110.445 38.1706 110.713 38.1706H115.069C115.542 38.1705 116.008 38.0561 116.428 37.8373C116.847 37.6185 117.208 37.3016 117.479 36.9136C117.75 36.5256 117.923 36.078 117.984 35.6087C118.045 35.1395 117.991 34.6625 117.828 34.2182C117.665 33.774 117.398 33.3756 117.048 33.057C116.698 32.7384 116.276 32.5089 115.819 32.3881C115.361 32.2673 114.882 32.2586 114.42 32.3629C113.958 32.4673 113.529 32.6814 113.168 32.9873L113.172 32.9839C112.967 33.1486 112.705 33.2265 112.443 33.2012C112.18 33.1759 111.938 33.0493 111.768 32.8484C111.597 32.6474 111.512 32.388 111.53 32.1251C111.548 31.8622 111.667 31.6167 111.863 31.4406L111.865 31.4395C112.53 30.875 113.333 30.4969 114.192 30.3439L114.222 30.3395C114.211 28.6718 113.668 27.0513 112.67 25.7149C111.672 24.3785 110.273 23.3962 108.677 22.9117C107.082 22.4272 105.373 22.4658 103.801 23.022C102.228 23.5782 100.875 24.6227 99.939 26.0028L99.9212 26.0306C100.686 26.3024 101.399 26.7006 102.032 27.2084L102.018 27.1973C102.183 27.3274 102.303 27.5057 102.362 27.7073C102.421 27.9089 102.416 28.1239 102.347 28.3224C102.279 28.5209 102.15 28.6932 101.979 28.8153C101.808 28.9374 101.603 29.0034 101.393 29.0039C101.16 29.0044 100.934 28.9235 100.753 28.7751L100.756 28.7762C99.8295 28.026 98.6731 27.6179 97.4812 27.6206H97.4656C96.0671 27.6206 94.7269 28.1762 93.7379 29.1651C92.749 30.1541 92.1934 31.4954 92.1934 32.8939C92.1934 34.2925 92.749 35.6338 93.7379 36.6228C94.7269 37.6117 96.0682 38.1673 97.4667 38.1673H99.7923C100.06 38.1673 100.318 38.2738 100.507 38.4634C100.697 38.653 100.803 38.9102 100.803 39.1784C100.803 39.4466 100.697 39.7037 100.507 39.8934C100.318 40.083 100.06 40.1895 99.7923 40.1895H97.4634C95.5282 40.1895 93.6723 39.4207 92.3039 38.0524C90.9355 36.684 90.1667 34.828 90.1667 32.8928C90.1667 30.9576 90.9355 29.1017 92.3039 27.7333C93.6723 26.3649 95.5282 25.5962 97.4634 25.5962C97.5767 25.5962 97.6879 25.6051 97.8023 25.6106C99.5167 22.5695 102.726 20.5495 106.406 20.5495C109.016 20.5498 111.519 21.5868 113.365 23.4325C115.211 25.2782 116.248 27.7814 116.249 30.3917V30.4117C118.436 30.9606 120.03 32.9084 120.03 35.2295C120.03 36.5449 119.507 37.8063 118.577 38.7364C117.647 39.6665 116.385 40.1892 115.07 40.1895L110.713 40.1928ZM104.085 39.1817V34.5295L102.941 35.6739C102.751 35.8636 102.494 35.97 102.226 35.9699C101.958 35.9698 101.7 35.8632 101.511 35.6734C101.321 35.4836 101.215 35.2263 101.215 34.958C101.215 34.6897 101.321 34.4325 101.511 34.2428L104.381 31.3717C104.444 31.3102 104.515 31.2571 104.592 31.2139L104.598 31.2117C104.617 31.2006 104.636 31.1917 104.655 31.1828C104.727 31.144 104.804 31.1145 104.883 31.0951L104.89 31.0939H104.901C104.987 31.0782 105.075 31.0741 105.162 31.0817H105.159H105.17C105.189 31.0817 105.208 31.0839 105.226 31.0884H105.225C105.32 31.0995 105.407 31.1217 105.489 31.1562L105.482 31.1539C105.537 31.1776 105.59 31.2058 105.64 31.2384L105.637 31.2362C105.652 31.2451 105.665 31.2562 105.679 31.2651C105.717 31.2924 105.753 31.322 105.788 31.3539L105.812 31.3739L108.685 34.2451C108.778 34.339 108.853 34.4504 108.904 34.5731C108.955 34.6959 108.981 34.8274 108.981 34.9602C108.981 35.0931 108.955 35.2246 108.904 35.3474C108.853 35.4701 108.779 35.5816 108.685 35.6756C108.591 35.7696 108.48 35.8441 108.357 35.895C108.234 35.9459 108.103 35.9721 107.97 35.9722C107.837 35.9722 107.706 35.9461 107.583 35.8953C107.46 35.8445 107.348 35.7701 107.255 35.6762L106.11 34.5317V39.1873C106.11 39.4554 106.004 39.7126 105.814 39.9022C105.624 40.0919 105.367 40.1984 105.099 40.1984C104.831 40.1984 104.574 40.0919 104.384 39.9022C104.194 39.7126 104.088 39.4554 104.088 39.1873L104.085 39.1817Z" fill="#083D4E"/>
<path d="M110.713 40.1928C110.445 40.1928 110.188 40.0863 109.998 39.8967C109.809 39.7071 109.702 39.4499 109.702 39.1817C109.702 38.9136 109.809 38.6564 109.998 38.4668C110.188 38.2771 110.445 38.1706 110.713 38.1706H115.069C115.542 38.1705 116.008 38.0561 116.428 37.8373C116.847 37.6185 117.208 37.3016 117.479 36.9136C117.75 36.5256 117.923 36.078 117.984 35.6087C118.045 35.1395 117.991 34.6625 117.828 34.2182C117.665 33.774 117.398 33.3756 117.048 33.057C116.698 32.7384 116.276 32.5089 115.819 32.3881C115.361 32.2673 114.882 32.2586 114.42 32.3629C113.958 32.4673 113.529 32.6814 113.168 32.9873L113.172 32.9839C112.967 33.1486 112.705 33.2265 112.443 33.2012C112.18 33.1759 111.938 33.0493 111.768 32.8484C111.597 32.6474 111.512 32.388 111.53 32.1251C111.548 31.8622 111.667 31.6167 111.863 31.4406L111.865 31.4395C112.53 30.875 113.333 30.4969 114.192 30.3439L114.222 30.3395C114.211 28.6718 113.668 27.0513 112.67 25.7149C111.672 24.3785 110.273 23.3962 108.677 22.9117C107.082 22.4272 105.373 22.4658 103.801 23.022C102.228 23.5782 100.875 24.6227 99.939 26.0028L99.9212 26.0306C100.686 26.3024 101.399 26.7006 102.032 27.2084L102.018 27.1973C102.183 27.3274 102.303 27.5057 102.362 27.7073C102.421 27.9089 102.416 28.1239 102.347 28.3224C102.279 28.5209 102.15 28.6932 101.979 28.8153C101.808 28.9374 101.603 29.0034 101.393 29.0039C101.16 29.0044 100.934 28.9235 100.753 28.7751L100.756 28.7762C99.8295 28.026 98.6731 27.6179 97.4812 27.6206H97.4656C96.0671 27.6206 94.7269 28.1762 93.7379 29.1651C92.749 30.1541 92.1934 31.4954 92.1934 32.8939C92.1934 34.2925 92.749 35.6338 93.7379 36.6228C94.7269 37.6117 96.0682 38.1673 97.4667 38.1673H99.7923C100.06 38.1673 100.318 38.2738 100.507 38.4634C100.697 38.653 100.803 38.9102 100.803 39.1784C100.803 39.4466 100.697 39.7037 100.507 39.8934C100.318 40.083 100.06 40.1895 99.7923 40.1895H97.4634C95.5282 40.1895 93.6723 39.4207 92.3039 38.0524C90.9355 36.684 90.1667 34.828 90.1667 32.8928C90.1667 30.9576 90.9355 29.1017 92.3039 27.7333C93.6723 26.3649 95.5282 25.5962 97.4634 25.5962C97.5767 25.5962 97.6879 25.6051 97.8023 25.6106C99.5167 22.5695 102.726 20.5495 106.406 20.5495C109.016 20.5498 111.519 21.5868 113.365 23.4325C115.211 25.2782 116.248 27.7814 116.249 30.3917V30.4117C118.436 30.9606 120.03 32.9084 120.03 35.2295C120.03 36.5449 119.507 37.8063 118.577 38.7364C117.647 39.6665 116.385 40.1892 115.07 40.1895L110.713 40.1928ZM104.085 39.1817V34.5295L102.941 35.6739C102.751 35.8636 102.494 35.97 102.226 35.9699C101.958 35.9698 101.7 35.8632 101.511 35.6734C101.321 35.4836 101.215 35.2263 101.215 34.958C101.215 34.6897 101.321 34.4325 101.511 34.2428L104.381 31.3717C104.444 31.3102 104.515 31.2571 104.592 31.2139L104.598 31.2117C104.617 31.2006 104.636 31.1917 104.655 31.1828C104.727 31.144 104.804 31.1145 104.883 31.0951L104.89 31.0939H104.901C104.987 31.0782 105.075 31.0741 105.162 31.0817H105.159H105.17C105.189 31.0817 105.208 31.0839 105.226 31.0884H105.225C105.32 31.0995 105.407 31.1217 105.489 31.1562L105.482 31.1539C105.537 31.1776 105.59 31.2058 105.64 31.2384L105.637 31.2362C105.652 31.2451 105.665 31.2562 105.679 31.2651C105.717 31.2924 105.753 31.322 105.788 31.3539L105.812 31.3739L108.685 34.2451C108.778 34.339 108.853 34.4504 108.904 34.5731C108.955 34.6959 108.981 34.8274 108.981 34.9602C108.981 35.0931 108.955 35.2246 108.904 35.3474C108.853 35.4701 108.779 35.5816 108.685 35.6756C108.591 35.7696 108.48 35.8441 108.357 35.895C108.234 35.9459 108.103 35.9721 107.97 35.9722C107.837 35.9722 107.706 35.9461 107.583 35.8953C107.46 35.8445 107.348 35.7701 107.255 35.6762L106.11 34.5317V39.1873C106.11 39.4554 106.004 39.7126 105.814 39.9022C105.624 40.0919 105.367 40.1984 105.099 40.1984C104.831 40.1984 104.574 40.0919 104.384 39.9022C104.194 39.7126 104.088 39.4554 104.088 39.1873L104.085 39.1817Z" stroke="#083D4E"/>
</g>
<path d="M144.725 34.085C144.725 34.9313 144.52 35.667 144.109 36.292C143.699 36.917 143.1 37.3988 142.312 37.7373C141.531 38.0758 140.581 38.2451 139.461 38.2451C138.966 38.2451 138.481 38.2126 138.006 38.1475C137.537 38.0824 137.085 37.988 136.648 37.8643C136.219 37.734 135.809 37.5745 135.418 37.3857V34.5732C136.095 34.8727 136.798 35.1429 137.527 35.3838C138.257 35.6247 138.979 35.7451 139.695 35.7451C140.19 35.7451 140.587 35.68 140.887 35.5498C141.193 35.4196 141.414 35.2406 141.551 35.0127C141.688 34.7848 141.756 34.5244 141.756 34.2314C141.756 33.8734 141.635 33.5674 141.395 33.3135C141.154 33.0596 140.822 32.8219 140.398 32.6006C139.982 32.3792 139.51 32.1416 138.982 31.8877C138.65 31.7314 138.289 31.5426 137.898 31.3213C137.508 31.0934 137.137 30.8167 136.785 30.4912C136.434 30.1657 136.144 29.7718 135.916 29.3096C135.695 28.8408 135.584 28.2809 135.584 27.6299C135.584 26.777 135.779 26.0479 136.17 25.4424C136.561 24.8369 137.117 24.3747 137.84 24.0557C138.569 23.7301 139.428 23.5674 140.418 23.5674C141.16 23.5674 141.867 23.6553 142.537 23.8311C143.214 24.0003 143.921 24.2477 144.656 24.5732L143.68 26.9268C143.022 26.6598 142.433 26.4548 141.912 26.3115C141.391 26.1618 140.861 26.0869 140.32 26.0869C139.943 26.0869 139.62 26.1488 139.354 26.2725C139.087 26.3896 138.885 26.5589 138.748 26.7803C138.611 26.9951 138.543 27.2458 138.543 27.5322C138.543 27.8708 138.641 28.1572 138.836 28.3916C139.038 28.6195 139.337 28.8408 139.734 29.0557C140.138 29.2705 140.639 29.5212 141.238 29.8076C141.967 30.1527 142.589 30.514 143.104 30.8916C143.624 31.2627 144.025 31.7021 144.305 32.21C144.585 32.7113 144.725 33.3363 144.725 34.085ZM158.934 23.7725V33.0107C158.934 33.9938 158.715 34.8825 158.279 35.6768C157.85 36.4645 157.195 37.0895 156.316 37.5518C155.444 38.014 154.344 38.2451 153.016 38.2451C151.128 38.2451 149.689 37.7633 148.699 36.7998C147.71 35.8363 147.215 34.5602 147.215 32.9717V23.7725H150.232V32.5127C150.232 33.6911 150.473 34.5179 150.955 34.9932C151.437 35.4684 152.15 35.7061 153.094 35.7061C153.758 35.7061 154.295 35.5921 154.705 35.3643C155.122 35.1364 155.428 34.7848 155.623 34.3096C155.818 33.8343 155.916 33.2288 155.916 32.4932V23.7725H158.934ZM162.43 23.7725H166.873C168.774 23.7725 170.213 24.0394 171.189 24.5732C172.166 25.1071 172.654 26.0446 172.654 27.3857C172.654 27.9261 172.566 28.4144 172.391 28.8506C172.221 29.2868 171.974 29.6449 171.648 29.9248C171.323 30.2048 170.926 30.387 170.457 30.4717V30.5693C170.932 30.667 171.362 30.8363 171.746 31.0771C172.13 31.3115 172.436 31.6566 172.664 32.1123C172.898 32.5615 173.016 33.1605 173.016 33.9092C173.016 34.7751 172.804 35.5173 172.381 36.1357C171.958 36.7542 171.352 37.2295 170.564 37.5615C169.783 37.887 168.852 38.0498 167.771 38.0498H162.43V23.7725ZM165.457 29.4268H167.215C168.094 29.4268 168.702 29.29 169.041 29.0166C169.38 28.7367 169.549 28.3265 169.549 27.7861C169.549 27.2393 169.347 26.8486 168.943 26.6143C168.546 26.3734 167.915 26.2529 167.049 26.2529H165.457V29.4268ZM165.457 31.8291V35.5498H167.43C168.341 35.5498 168.976 35.374 169.334 35.0225C169.692 34.6709 169.871 34.1989 169.871 33.6064C169.871 33.2549 169.793 32.9456 169.637 32.6787C169.48 32.4118 169.217 32.2035 168.846 32.0537C168.481 31.904 167.977 31.8291 167.332 31.8291H165.457ZM184.09 38.0498H175.867V23.7725H184.09V26.2529H178.895V29.3877H183.729V31.8682H178.895V35.5498H184.09V38.0498ZM197.781 38.0498H194.754V26.292H190.877V23.7725H201.658V26.292H197.781V38.0498ZM215.477 23.7725V33.0107C215.477 33.9938 215.258 34.8825 214.822 35.6768C214.393 36.4645 213.738 37.0895 212.859 37.5518C211.987 38.014 210.887 38.2451 209.559 38.2451C207.671 38.2451 206.232 37.7633 205.242 36.7998C204.253 35.8363 203.758 34.5602 203.758 32.9717V23.7725H206.775V32.5127C206.775 33.6911 207.016 34.5179 207.498 34.9932C207.98 35.4684 208.693 35.7061 209.637 35.7061C210.301 35.7061 210.838 35.5921 211.248 35.3643C211.665 35.1364 211.971 34.7848 212.166 34.3096C212.361 33.8343 212.459 33.2288 212.459 32.4932V23.7725H215.477ZM230.213 38.0498L226.775 26.8486H226.688C226.701 27.1156 226.72 27.5192 226.746 28.0596C226.779 28.5934 226.808 29.1631 226.834 29.7686C226.86 30.374 226.873 30.9209 226.873 31.4092V38.0498H224.168V23.7725H228.289L231.668 34.6904H231.727L235.311 23.7725H239.432V38.0498H236.609V31.292C236.609 30.8428 236.616 30.3252 236.629 29.7393C236.648 29.1533 236.671 28.5967 236.697 28.0693C236.723 27.5355 236.743 27.1351 236.756 26.8682H236.668L232.986 38.0498H230.213ZM255.994 30.8916C255.994 31.9919 255.857 32.9945 255.584 33.8994C255.311 34.7979 254.894 35.5726 254.334 36.2236C253.781 36.8747 253.077 37.376 252.225 37.7275C251.372 38.0726 250.363 38.2451 249.197 38.2451C248.032 38.2451 247.023 38.0726 246.17 37.7275C245.317 37.376 244.611 36.8747 244.051 36.2236C243.497 35.5726 243.084 34.7946 242.811 33.8896C242.537 32.9847 242.4 31.9788 242.4 30.8721C242.4 29.3942 242.641 28.1084 243.123 27.0146C243.611 25.9144 244.36 25.0615 245.369 24.4561C246.378 23.8506 247.661 23.5479 249.217 23.5479C250.766 23.5479 252.039 23.8506 253.035 24.4561C254.038 25.0615 254.78 25.9144 255.262 27.0146C255.75 28.1149 255.994 29.4072 255.994 30.8916ZM245.574 30.8916C245.574 31.8877 245.698 32.7471 245.945 33.4697C246.199 34.1859 246.593 34.7393 247.127 35.1299C247.661 35.514 248.351 35.7061 249.197 35.7061C250.057 35.7061 250.753 35.514 251.287 35.1299C251.821 34.7393 252.208 34.1859 252.449 33.4697C252.697 32.7471 252.82 31.8877 252.82 30.8916C252.82 29.3942 252.54 28.2158 251.98 27.3564C251.421 26.4971 250.499 26.0674 249.217 26.0674C248.364 26.0674 247.667 26.2627 247.127 26.6533C246.593 27.0374 246.199 27.5908 245.945 28.3135C245.698 29.0296 245.574 29.889 245.574 30.8916ZM270.799 30.7744C270.799 32.3825 270.49 33.7269 269.871 34.8076C269.259 35.8818 268.37 36.6924 267.205 37.2393C266.04 37.7796 264.637 38.0498 262.996 38.0498H258.953V23.7725H263.436C264.933 23.7725 266.232 24.0394 267.332 24.5732C268.432 25.1006 269.285 25.8851 269.891 26.9268C270.496 27.9619 270.799 29.2445 270.799 30.7744ZM267.654 30.8525C267.654 29.7979 267.498 28.932 267.186 28.2549C266.88 27.5713 266.424 27.0667 265.818 26.7412C265.219 26.4157 264.477 26.2529 263.592 26.2529H261.98V35.5498H263.279C264.757 35.5498 265.854 35.1559 266.57 34.3682C267.293 33.5804 267.654 32.4085 267.654 30.8525ZM281.98 38.0498H273.758V23.7725H281.98V26.2529H276.785V29.3877H281.619V31.8682H276.785V35.5498H281.98V38.0498ZM284.969 38.0498V23.7725H287.996V35.5498H293.787V38.0498H284.969ZM309.236 30.8916C309.236 31.9919 309.1 32.9945 308.826 33.8994C308.553 34.7979 308.136 35.5726 307.576 36.2236C307.023 36.8747 306.32 37.376 305.467 37.7275C304.614 38.0726 303.605 38.2451 302.439 38.2451C301.274 38.2451 300.265 38.0726 299.412 37.7275C298.559 37.376 297.853 36.8747 297.293 36.2236C296.74 35.5726 296.326 34.7946 296.053 33.8896C295.779 32.9847 295.643 31.9788 295.643 30.8721C295.643 29.3942 295.883 28.1084 296.365 27.0146C296.854 25.9144 297.602 25.0615 298.611 24.4561C299.62 23.8506 300.903 23.5479 302.459 23.5479C304.008 23.5479 305.281 23.8506 306.277 24.4561C307.28 25.0615 308.022 25.9144 308.504 27.0146C308.992 28.1149 309.236 29.4072 309.236 30.8916ZM298.816 30.8916C298.816 31.8877 298.94 32.7471 299.188 33.4697C299.441 34.1859 299.835 34.7393 300.369 35.1299C300.903 35.514 301.593 35.7061 302.439 35.7061C303.299 35.7061 303.995 35.514 304.529 35.1299C305.063 34.7393 305.451 34.1859 305.691 33.4697C305.939 32.7471 306.062 31.8877 306.062 30.8916C306.062 29.3942 305.783 28.2158 305.223 27.3564C304.663 26.4971 303.742 26.0674 302.459 26.0674C301.606 26.0674 300.91 26.2627 300.369 26.6533C299.835 27.0374 299.441 27.5908 299.188 28.3135C298.94 29.0296 298.816 29.889 298.816 30.8916ZM325.818 26.9658C325.818 27.6234 325.682 28.193 325.408 28.6748C325.135 29.1566 324.764 29.5505 324.295 29.8564C323.833 30.1624 323.312 30.387 322.732 30.5303V30.5889C323.878 30.7321 324.747 31.0837 325.34 31.6436C325.939 32.2035 326.238 32.9521 326.238 33.8896C326.238 34.723 326.033 35.4684 325.623 36.126C325.219 36.7835 324.594 37.3011 323.748 37.6787C322.902 38.0563 321.811 38.2451 320.477 38.2451C319.689 38.2451 318.953 38.18 318.27 38.0498C317.592 37.9261 316.954 37.734 316.355 37.4736V34.9053C316.967 35.2178 317.609 35.4554 318.279 35.6182C318.95 35.7744 319.575 35.8525 320.154 35.8525C321.235 35.8525 321.99 35.667 322.42 35.2959C322.856 34.9183 323.074 34.391 323.074 33.7139C323.074 33.3167 322.973 32.9814 322.771 32.708C322.57 32.4346 322.218 32.2262 321.717 32.083C321.222 31.9398 320.529 31.8682 319.637 31.8682H318.553V29.5537H319.656C320.535 29.5537 321.202 29.4723 321.658 29.3096C322.12 29.1403 322.433 28.9124 322.596 28.626C322.765 28.333 322.85 28.001 322.85 27.6299C322.85 27.1221 322.693 26.7249 322.381 26.4385C322.068 26.152 321.548 26.0088 320.818 26.0088C320.363 26.0088 319.946 26.0674 319.568 26.1846C319.197 26.2952 318.862 26.432 318.562 26.5947C318.263 26.751 317.999 26.904 317.771 27.0537L316.375 24.9736C316.935 24.57 317.589 24.2347 318.338 23.9678C319.093 23.7008 319.992 23.5674 321.033 23.5674C322.505 23.5674 323.67 23.8636 324.529 24.4561C325.389 25.0485 325.818 25.8851 325.818 26.9658ZM340.682 30.7744C340.682 32.3825 340.372 33.7269 339.754 34.8076C339.142 35.8818 338.253 36.6924 337.088 37.2393C335.923 37.7796 334.52 38.0498 332.879 38.0498H328.836V23.7725H333.318C334.816 23.7725 336.115 24.0394 337.215 24.5732C338.315 25.1006 339.168 25.8851 339.773 26.9268C340.379 27.9619 340.682 29.2445 340.682 30.7744ZM337.537 30.8525C337.537 29.7979 337.381 28.932 337.068 28.2549C336.762 27.5713 336.307 27.0667 335.701 26.7412C335.102 26.4157 334.36 26.2529 333.475 26.2529H331.863V35.5498H333.162C334.64 35.5498 335.737 35.1559 336.453 34.3682C337.176 33.5804 337.537 32.4085 337.537 30.8525Z" fill="#083D4E"/>
</svg>
