<svg width="129" height="121" viewBox="0 0 129 121" fill="none" xmlns="http://www.w3.org/2000/svg">
<g id="Clip path group">
<mask id="mask0_773_1000" style="mask-type:luminance" maskUnits="userSpaceOnUse" x="0" y="0" width="129" height="121">
<g id="clippath">
<path id="Vector" d="M2.83503 0.144485H125.965C127.509 0.144485 128.758 1.3972 128.758 2.94718V121H0.0527344V2.94718C0.0527344 1.3972 1.30106 0.144485 2.84561 0.144485H2.83503Z" fill="white"/>
</g>
</mask>
<g mask="url(#mask0_773_1000)">
<g id="Group">
<g id="Group_2">
<path id="Vector_2" d="M123.923 109.503H4.88756C2.78233 109.503 1.0791 107.793 1.0791 105.67V5.01735C1.0791 2.90471 2.78233 1.18488 4.88756 1.18488H123.923C126.028 1.18488 127.732 2.8941 127.732 5.01735V105.681C127.732 107.793 126.028 109.513 123.923 109.513V109.503Z" stroke="#16AFE0" stroke-width="10" stroke-miterlimit="10"/>
<path id="Vector_3" d="M22.7665 71.8679H19.4658C19.1167 71.8679 18.8311 72.1546 18.8311 72.5049V75.8172C18.8311 76.1675 19.1167 76.4542 19.4658 76.4542H22.7665C23.1156 76.4542 23.4012 76.1675 23.4012 75.8172V72.5049C23.4012 72.1546 23.1156 71.8679 22.7665 71.8679Z" fill="#16AFE0"/>
<path id="Vector_4" d="M31.4725 71.8679H28.1719C27.8227 71.8679 27.5371 72.1546 27.5371 72.5049V75.8172C27.5371 76.1675 27.8227 76.4542 28.1719 76.4542H31.4725C31.8216 76.4542 32.1073 76.1675 32.1073 75.8172V72.5049C32.1073 72.1546 31.8216 71.8679 31.4725 71.8679Z" fill="#16AFE0"/>
<path id="Vector_5" d="M40.1688 71.8679H36.8681C36.519 71.8679 36.2334 72.1546 36.2334 72.5049V75.8172C36.2334 76.1675 36.519 76.4542 36.8681 76.4542H40.1688C40.5179 76.4542 40.8036 76.1675 40.8036 75.8172V72.5049C40.8036 72.1546 40.5179 71.8679 40.1688 71.8679Z" fill="#16AFE0"/>
<path id="Vector_6" d="M62.1622 59.2134L52.44 64.6277C51.6783 65.0523 51.0542 65.668 50.6098 66.4218C50.1761 67.1756 49.9434 68.0355 49.9434 68.906V79.4161C49.9434 80.2866 50.1761 81.1466 50.6098 81.9003C51.0436 82.6541 51.6783 83.2698 52.44 83.6945L62.1622 89.1087C62.8816 89.5122 63.6961 89.7245 64.5319 89.7245C65.3676 89.7245 66.1716 89.5122 66.9016 89.1087L76.6238 83.6945C77.3855 83.2698 78.0096 82.6541 78.4539 81.9003C78.8877 81.1466 79.1204 80.2866 79.1204 79.4161V68.906C79.1204 68.0355 78.8877 67.1756 78.4539 66.4218C78.0202 65.668 77.3855 65.0523 76.6238 64.6277L66.9016 59.2134C66.1822 58.8099 65.3676 58.5976 64.5319 58.5976C63.6961 58.5976 62.8921 58.8099 62.1622 59.2134Z" stroke="#B7E6F5" stroke-width="3"/>
<path id="Vector_7" d="M78.1265 65.9653L64.5218 74.1611M50.9277 65.9653L64.5324 74.1611V89.7139" stroke="#B7E6F5" stroke-width="3"/>
<path id="Vector_8" d="M92.1864 71.8679H88.8857C88.5366 71.8679 88.251 72.1546 88.251 72.5049V75.8172C88.251 76.1675 88.5366 76.4542 88.8857 76.4542H92.1864C92.5355 76.4542 92.8211 76.1675 92.8211 75.8172V72.5049C92.8211 72.1546 92.5355 71.8679 92.1864 71.8679Z" fill="#16AFE0"/>
<path id="Vector_9" d="M100.882 71.8679H97.581C97.2319 71.8679 96.9463 72.1546 96.9463 72.5049V75.8172C96.9463 76.1675 97.2319 76.4542 97.581 76.4542H100.882C101.231 76.4542 101.516 76.1675 101.516 75.8172V72.5049C101.516 72.1546 101.231 71.8679 100.882 71.8679Z" fill="#16AFE0"/>
<path id="Vector_10" d="M109.589 71.8679H106.288C105.939 71.8679 105.653 72.1546 105.653 72.5049V75.8172C105.653 76.1675 105.939 76.4542 106.288 76.4542H109.589C109.938 76.4542 110.223 76.1675 110.223 75.8172V72.5049C110.223 72.1546 109.938 71.8679 109.589 71.8679Z" fill="#16AFE0"/>
<path id="Vector_11" d="M13.7318 121C18.4078 121 22.1951 118.187 22.1951 114.715C22.1951 111.244 18.4078 108.43 13.7318 108.43C9.05586 108.43 5.26855 111.244 5.26855 114.715C5.26855 118.187 9.05586 121 13.7318 121Z" fill="#16AFE0"/>
<path id="Vector_12" d="M116.803 121C121.479 121 125.266 118.187 125.266 114.715C125.266 111.244 121.479 108.43 116.803 108.43C112.127 108.43 108.34 111.244 108.34 114.715C108.34 118.187 112.127 121 116.803 121Z" fill="#16AFE0"/>
<path id="Vector_13" d="M47.9126 20.2623H1.0791" stroke="#16AFE0" stroke-width="6" stroke-miterlimit="10"/>
<path id="Vector_14" d="M77.1739 13.4148H51.7206C50.6733 13.4148 49.8164 14.2747 49.8164 15.3257V25.1882C49.8164 26.2499 50.6733 27.0992 51.7206 27.0992H77.1739C78.2212 27.0992 79.0781 26.2393 79.0781 25.1882V15.3257C79.0781 14.2641 78.2212 13.4148 77.1739 13.4148Z" fill="#16AFE0"/>
<path id="Vector_15" d="M80.9932 20.2623H127.827" stroke="#16AFE0" stroke-width="6" stroke-miterlimit="10"/>
<path id="Vector_16" d="M68.8272 13.5741H59.7927C58.9252 13.5741 58.1318 14.0943 57.7827 14.8905L52.8105 26.1437C52.5566 26.717 52.5566 27.3646 52.8105 27.9379L57.7827 39.1911C58.1318 39.9873 58.9147 40.5075 59.7927 40.5075H68.8272C69.6947 40.5075 70.4882 39.9873 70.8373 39.1911L75.8094 27.9379C76.0633 27.3646 76.0633 26.717 75.8094 26.1437L70.8373 14.8905C70.4882 14.0943 69.7053 13.5741 68.8272 13.5741Z" fill="#16AFE0"/>
<path id="Vector_17" d="M65.2936 39.8705H63.4528C63.3364 39.8705 63.2412 39.9661 63.2412 40.0829V48.3105C63.2412 48.4272 63.3364 48.5228 63.4528 48.5228H65.2936C65.4099 48.5228 65.5051 48.4272 65.5051 48.3105V40.0829C65.5051 39.9661 65.4099 39.8705 65.2936 39.8705Z" fill="#16AFE0"/>
<path id="Vector_18" d="M85.3517 93.8224H43.4163C43.046 93.8224 42.7393 94.1302 42.7393 94.5018V97.5168C42.7393 97.8884 43.046 98.1963 43.4163 98.1963H85.3517C85.722 98.1963 86.0288 97.8884 86.0288 97.5168V94.5018C86.0288 94.1302 85.722 93.8224 85.3517 93.8224Z" fill="#16AFE0"/>
</g>
</g>
</g>
</g>
</svg>
