<svg width="21" height="22" viewBox="0 0 21 22" fill="none" xmlns="http://www.w3.org/2000/svg">
<rect width="21" height="22" fill="#535353"/>
<g id="Section 1">
<path d="M-8232 -2693C-8232 -2694.1 -8231.1 -2695 -8230 -2695H20266C20267.1 -2695 20268 -2694.1 20268 -2693V13971C20268 13972.1 20267.1 13973 20266 13973H-8230C-8231.11 13973 -8232 13972.1 -8232 13971V-2693Z" fill="#444444"/>
<path d="M-8230 -2694H20266V-2696H-8230V-2694ZM20267 -2693V13971H20269V-2693H20267ZM20266 13972H-8230V13974H20266V13972ZM-8231 13971V-2693H-8233V13971H-8231ZM-8230 13972C-8230.55 13972 -8231 13971.6 -8231 13971H-8233C-8233 13972.7 -8231.66 13974 -8230 13974V13972ZM20267 13971C20267 13971.6 20266.6 13972 20266 13972V13974C20267.7 13974 20269 13972.7 20269 13971H20267ZM20266 -2694C20266.6 -2694 20267 -2693.55 20267 -2693H20269C20269 -2694.66 20267.7 -2696 20266 -2696V-2694ZM-8230 -2696C-8231.66 -2696 -8233 -2694.66 -8233 -2693H-8231C-8231 -2693.55 -8230.55 -2694 -8230 -2694V-2696Z" fill="white" fill-opacity="0.1"/>
<g id="Calculadora" clip-path="url(#clip0_319_2671)">
<rect width="1280" height="3398" transform="translate(-254 -1609)" fill="#222631"/>
<g id="Frame 255">
<g id="Group 110">
<g id="Group 97">
<g id="Grid tabla 1">
<g clip-path="url(#clip1_319_2671)">
<g id="Frame 88">
<path d="M-149 -59.9502H921V203.05C921 206.916 917.866 210.05 914 210.05H-142C-145.866 210.05 -149 206.916 -149 203.05V-59.9502Z" stroke="#0A4F65" stroke-width="2"/>
<g id="Group 85">
<rect id="Rectangle 409" x="-37.5" y="-60.4502" width="959" height="271" rx="4.5" fill="#FAFAFA" stroke="#0A4F65"/>
</g>
<g id="ABS/ASA">
<rect x="-149" y="-13.9502" width="1071" height="45" stroke="#0A4F65" stroke-width="2"/>
<g id="Group 80">
<g id="Frame 89">
<circle id="Ellipse 10" cx="10.5" cy="10.5498" r="10.5" fill="#0A4F65"/>
</g>
</g>
</g>
</g>
</g>
<path d="M-149 -61.9502H921V203.05C921 206.916 917.866 210.05 914 210.05H-142C-145.866 210.05 -149 206.916 -149 203.05V-61.9502Z" stroke="#0A4F65" stroke-width="2"/>
</g>
</g>
</g>
</g>
</g>
</g>
<defs>
<clipPath id="clip0_319_2671">
<rect width="1280" height="3398" fill="white" transform="translate(-254 -1609)"/>
</clipPath>
<clipPath id="clip1_319_2671">
<path d="M-150 -62.9502H922V203.05C922 207.468 918.418 211.05 914 211.05H-142C-146.418 211.05 -150 207.468 -150 203.05V-62.9502Z" fill="white"/>
</clipPath>
</defs>
</svg>
