<svg width="113" height="111" viewBox="0 0 113 111" fill="none" xmlns="http://www.w3.org/2000/svg">
<g id="Group">
<path id="Vector" d="M100.303 50.0908V37.9951C100.311 35.0915 99.5468 32.2388 98.0903 29.7335C96.6339 27.2281 94.538 25.1617 92.0207 23.7489L59.7536 5.69817C57.3536 4.35122 54.652 3.64424 51.9048 3.64424C49.1577 3.64424 46.4561 4.35122 44.0561 5.69817L11.789 23.7434C9.27085 25.1566 7.17448 27.224 5.71794 29.7304C4.26141 32.2367 3.49793 35.0906 3.50691 37.9951V73.0049C3.4989 75.9084 4.26284 78.7612 5.71932 81.2665C7.1758 83.7719 9.27166 85.8383 11.789 87.2511L44.0561 105.302C46.4561 106.649 49.1577 107.356 51.9048 107.356C54.652 107.356 57.3536 106.649 59.7536 105.302L73.4144 97.6602" stroke="#16AFE0" stroke-width="7" stroke-linecap="round" stroke-linejoin="round"/>
<path id="Vector_2" d="M97.0258 28.1865L51.905 55.5M51.905 55.5L6.78418 28.1865M51.905 55.5V107.3M81.5125 77.3115L89.1392 84.9914C89.4068 85.2655 89.726 85.4832 90.0779 85.6318C90.4299 85.7804 90.8078 85.8569 91.1894 85.8569C91.571 85.8569 91.9488 85.7804 92.3008 85.6318C92.6528 85.4832 92.9719 85.2655 93.2396 84.9914L108.596 69.5115" stroke="#16AFE0" stroke-width="7" stroke-linecap="round" stroke-linejoin="round"/>
<path id="Vector_3" d="M81.5127 77.3115L89.1394 84.9914C89.407 85.2655 89.7262 85.4832 90.0781 85.6318C90.4301 85.7804 90.8079 85.8569 91.1896 85.8569C91.5712 85.8569 91.949 85.7804 92.301 85.6318C92.653 85.4832 92.9721 85.2655 93.2398 84.9914L108.596 69.5115" stroke="#B7E6F5" stroke-width="7" stroke-linecap="round" stroke-linejoin="round"/>
</g>
</svg>
