<svg width="40" height="41" viewBox="0 0 40 41" fill="none" xmlns="http://www.w3.org/2000/svg">
<g id="icono-numero-5-modelado3D">
<path id="Vector" fill-rule="evenodd" clip-rule="evenodd" d="M6 3.7998C5.40326 3.7998 4.83097 4.03686 4.40901 4.45881C3.98705 4.88077 3.75 5.45307 3.75 6.0498V34.0498C3.75 35.2931 4.75667 36.2998 6 36.2998H34C34.2955 36.2998 34.5881 36.2416 34.861 36.1285C35.134 36.0155 35.3821 35.8497 35.591 35.6408C35.7999 35.4319 35.9657 35.1838 36.0787 34.9108C36.1918 34.6379 36.25 34.3453 36.25 34.0498V6.0498C36.25 5.75433 36.1918 5.46175 36.0787 5.18877C35.9657 4.91578 35.7999 4.66775 35.591 4.45881C35.3821 4.24988 35.134 4.08415 34.861 3.97108C34.5881 3.858 34.2955 3.7998 34 3.7998H6ZM22.9167 22.5498C22.9167 24.3198 21.65 25.4665 20 25.4665C18.115 25.4665 17.0833 24.2881 17.0833 23.3831C17.0833 23.0516 16.9516 22.7337 16.7172 22.4993C16.4828 22.2648 16.1649 22.1331 15.8333 22.1331C15.5018 22.1331 15.1839 22.2648 14.9495 22.4993C14.715 22.7337 14.5833 23.0516 14.5833 23.3831C14.5833 26.1598 17.2833 27.9665 20 27.9665C22.9517 27.9665 25.4167 25.7798 25.4167 22.5498C25.4167 21.1565 25.1333 19.8081 24.3633 18.7798C23.55 17.6931 22.3217 17.1331 20.8333 17.1331H17.3083L17.725 14.6331H23.3333C23.6649 14.6331 23.9828 14.5014 24.2172 14.267C24.4516 14.0326 24.5833 13.7147 24.5833 13.3831C24.5833 13.0516 24.4516 12.7337 24.2172 12.4993C23.9828 12.2648 23.6649 12.1331 23.3333 12.1331H16.6667C16.3706 12.1331 16.0842 12.2381 15.8583 12.4294C15.6325 12.6208 15.4819 12.8861 15.4333 13.1781L14.6 18.1781C14.5702 18.3572 14.5798 18.5406 14.6281 18.7156C14.6764 18.8906 14.7622 19.0529 14.8795 19.1914C14.9969 19.3299 15.143 19.4411 15.3078 19.5174C15.4725 19.5937 15.6518 19.6332 15.8333 19.6331H20.8333C21.6467 19.6331 22.0833 19.9065 22.3617 20.2781C22.6833 20.7081 22.9167 21.4448 22.9167 22.5498Z" fill="#16AFE0"/>
</g>
</svg>
