<svg width="40" height="41" viewBox="0 0 40 41" fill="none" xmlns="http://www.w3.org/2000/svg">
<g id="icono-numero-1-modelado3D">
<path id="Vector" fill-rule="evenodd" clip-rule="evenodd" d="M6 3.7998C5.40326 3.7998 4.83097 4.03686 4.40901 4.45881C3.98705 4.88077 3.75 5.45307 3.75 6.0498V34.0498C3.75 35.2931 4.75667 36.2998 6 36.2998H34C34.2955 36.2998 34.5881 36.2416 34.861 36.1285C35.134 36.0155 35.3821 35.8497 35.591 35.6408C35.7999 35.4319 35.9657 35.1838 36.0787 34.9108C36.1918 34.6379 36.25 34.3453 36.25 34.0498V6.0498C36.25 5.75433 36.1918 5.46175 36.0787 5.18877C35.9657 4.91578 35.7999 4.66775 35.591 4.45881C35.3821 4.24988 35.134 4.08415 34.861 3.97108C34.5881 3.858 34.2955 3.7998 34 3.7998H6ZM22.9167 13.3831C22.9164 13.1361 22.843 12.8946 22.7057 12.6893C22.5683 12.4839 22.3731 12.3238 22.1449 12.2293C21.9166 12.1348 21.6654 12.1101 21.4231 12.1582C21.1808 12.2063 20.9581 12.3252 20.7833 12.4998L15.7833 17.4998C15.6605 17.6142 15.562 17.7522 15.4937 17.9056C15.4254 18.0589 15.3886 18.2244 15.3857 18.3923C15.3827 18.5601 15.4136 18.7268 15.4765 18.8825C15.5393 19.0381 15.6329 19.1795 15.7516 19.2982C15.8703 19.4169 16.0117 19.5105 16.1673 19.5733C16.323 19.6362 16.4897 19.6671 16.6575 19.6641C16.8254 19.6612 16.9909 19.6244 17.1442 19.5561C17.2976 19.4878 17.4356 19.3893 17.55 19.2665L20.4167 16.3998V26.7165C20.4167 27.048 20.5484 27.3659 20.7828 27.6004C21.0172 27.8348 21.3351 27.9665 21.6667 27.9665C21.9982 27.9665 22.3161 27.8348 22.5505 27.6004C22.785 27.3659 22.9167 27.048 22.9167 26.7165V13.3831Z" fill="#16AFE0"/>
</g>
</svg>
