<svg width="14" height="15" viewBox="0 0 14 15" fill="none" xmlns="http://www.w3.org/2000/svg">
<g id="Group">
<path id="Vector" fill-rule="evenodd" clip-rule="evenodd" d="M6.24998 2.13312C5.14491 2.13312 4.0851 2.5721 3.3037 3.35351C2.5223 4.13491 2.08331 5.19472 2.08331 6.29978C2.08331 7.40485 2.5223 8.46466 3.3037 9.24606C4.0851 10.0275 5.14491 10.4665 6.24998 10.4665C7.35505 10.4665 8.41486 10.0275 9.19626 9.24606C9.97766 8.46466 10.4166 7.40485 10.4166 6.29978C10.4166 5.19472 9.97766 4.13491 9.19626 3.35351C8.41486 2.5721 7.35505 2.13312 6.24998 2.13312ZM0.833313 6.29978C0.833313 4.86319 1.404 3.48544 2.41982 2.46962C3.43564 1.4538 4.81339 0.883118 6.24998 0.883118C7.68657 0.883118 9.06432 1.4538 10.0801 2.46962C11.096 3.48544 11.6666 4.86319 11.6666 6.29978C11.6666 7.73637 11.096 9.11412 10.0801 10.1299C9.06432 11.1458 7.68657 11.7165 6.24998 11.7165C4.81339 11.7165 3.43564 11.1458 2.41982 10.1299C1.404 9.11412 0.833313 7.73637 0.833313 6.29978Z" fill="#083D4E"/>
<path id="Vector_2" fill-rule="evenodd" clip-rule="evenodd" d="M9.55833 9.60814C9.67552 9.4911 9.83437 9.42535 10 9.42535C10.1656 9.42535 10.3245 9.4911 10.4417 9.60814L13.775 12.9415C13.8364 12.9987 13.8857 13.0677 13.9198 13.1444C13.954 13.221 13.9723 13.3038 13.9738 13.3877C13.9753 13.4716 13.9599 13.555 13.9284 13.6328C13.897 13.7106 13.8502 13.7813 13.7909 13.8407C13.7315 13.9 13.6608 13.9468 13.583 13.9782C13.5052 14.0097 13.4218 14.0251 13.3379 14.0236C13.254 14.0221 13.1712 14.0038 13.0946 13.9696C13.0179 13.9355 12.9489 13.8862 12.8917 13.8248L9.55833 10.4915C9.44129 10.3743 9.37555 10.2154 9.37555 10.0498C9.37555 9.88418 9.44129 9.72533 9.55833 9.60814Z" fill="#083D4E"/>
</g>
</svg>
