<svg width="65" height="65" viewBox="0 0 65 65" fill="none" xmlns="http://www.w3.org/2000/svg">
<path d="M13.5263 44.0069C9.40626 39.8843 7.34493 37.8256 6.5796 35.1509C5.8116 32.4763 6.4676 29.6363 7.7796 23.9589L8.53426 20.6843C9.6356 15.9056 10.1876 13.5163 11.8223 11.8789C13.4596 10.2443 15.8489 9.69227 20.6276 8.59094L23.9023 7.83361C29.5823 6.52427 32.4196 5.86827 35.0943 6.6336C37.7689 7.4016 39.8276 9.46294 43.9476 13.5829L48.8276 18.4629C56.0036 25.6363 59.5849 29.2203 59.5849 33.6736C59.5849 38.1296 56.0009 41.7136 48.8303 48.8843C41.6569 56.0576 38.0729 59.6416 33.6169 59.6416C29.1636 59.6416 25.5769 56.0576 18.4063 48.8869L13.5263 44.0069Z" stroke="#B7E6F5" stroke-width="2.5"/>
<path d="M41.9587 42.015C43.5187 40.4497 43.7293 38.1297 42.428 36.8257C41.1267 35.5244 38.804 35.735 37.2413 37.2977C35.6813 38.8604 33.3587 39.071 32.0573 37.7697C30.756 36.4684 30.9667 34.1457 32.5293 32.5857M32.5293 32.5857L31.5853 31.6417M32.5293 32.5857C33.412 31.7004 34.5373 31.2524 35.5853 31.2604M42.9 42.9564L41.956 42.0124C40.8893 43.0817 39.4627 43.519 38.252 43.2684" stroke="#B7E6F5" stroke-width="2.5" stroke-linecap="round"/>
<path d="M27.6418 28.4236C29.7246 26.3408 29.7246 22.9639 27.6418 20.8811C25.559 18.7983 22.1822 18.7983 20.0994 20.8811C18.0166 22.9639 18.0166 26.3408 20.0994 28.4236C22.1822 30.5064 25.559 30.5064 27.6418 28.4236Z" stroke="#B7E6F5" stroke-width="2.5"/>
</svg>
