<svg width="65" height="64" viewBox="0 0 65 64" fill="none" xmlns="http://www.w3.org/2000/svg">
<path d="M32.4113 55.5745C30.4759 55.5771 28.538 54.4164 27.9748 52.0925C27.8059 51.395 27.4746 50.7473 27.008 50.2021C26.5413 49.6569 25.9526 49.2296 25.2896 48.9549C24.6266 48.6802 23.9081 48.566 23.1927 48.6214C22.4772 48.6769 21.7849 48.9005 21.1722 49.2741C17.0927 51.7594 12.421 47.0903 14.9062 43.0082C15.2793 42.3957 15.5025 41.7038 15.5579 40.9888C15.6132 40.2738 15.4991 39.5559 15.2247 38.8933C14.9504 38.2307 14.5235 37.6422 13.9789 37.1757C13.4343 36.7091 12.7873 36.3776 12.0905 36.2081C7.44786 35.0818 7.44786 28.4775 12.0905 27.3512C12.7879 27.1822 13.4356 26.8509 13.9809 26.3843C14.5261 25.9177 14.9534 25.3289 15.2281 24.6659C15.5028 24.003 15.617 23.2845 15.5615 22.569C15.5061 21.8535 15.2824 21.1612 14.9089 20.5485C12.4236 16.469 17.0927 11.7973 21.1748 14.2826C23.8187 15.89 27.2451 14.4676 27.9748 11.4668C29.1011 6.82421 35.7055 6.82421 36.8318 11.4668C37.0008 12.1643 37.3321 12.812 37.7987 13.3572C38.2653 13.9024 38.8541 14.3298 39.517 14.6044C40.18 14.8791 40.8985 14.9934 41.614 14.9379C42.3295 14.8824 43.0217 14.6588 43.6345 14.2852C47.7139 11.8 52.3857 16.469 49.9004 20.5512C49.5274 21.1636 49.3041 21.8555 49.2488 22.5705C49.1934 23.2855 49.3076 24.0034 49.5819 24.666C49.8563 25.3286 50.2831 25.9171 50.8277 26.3837C51.3723 26.8502 52.0193 27.1817 52.7161 27.3512C55.0586 27.9196 56.2193 29.8814 56.2008 31.8299" stroke="#B7E6F5" stroke-width="3.33333" stroke-linecap="round" stroke-linejoin="round"/>
<path d="M50.913 55.5745C49.5107 55.5745 48.1657 55.0174 47.1741 54.0258C46.1824 53.0342 45.6253 51.6892 45.6253 50.2868C45.6253 48.8844 46.1824 47.5395 47.1741 46.5478C48.1657 45.5562 49.5107 44.9991 50.913 44.9991M50.913 55.5745C52.3154 55.5745 53.6604 55.0174 54.652 54.0258C55.6437 53.0342 56.2008 51.6892 56.2008 50.2868C56.2008 48.8844 55.6437 47.5395 54.652 46.5478C53.6604 45.5562 52.3154 44.9991 50.913 44.9991M50.913 55.5745V59.5403M50.913 44.9991V41.0333M58.9266 45.66L55.4922 47.6429M46.3365 52.9307L42.8995 54.9136M42.8995 45.66L46.3365 47.6429M55.4922 52.9307L58.9293 54.9136M24.4717 31.7797C24.4717 33.8833 25.3074 35.9008 26.7949 37.3882C28.2823 38.8757 30.2997 39.7113 32.4033 39.7113C34.5069 39.7113 36.5244 38.8757 38.0118 37.3882C39.4993 35.9008 40.3349 33.8833 40.3349 31.7797C40.3349 29.6762 39.4993 27.6587 38.0118 26.1713C36.5244 24.6838 34.5069 23.8481 32.4033 23.8481C30.2997 23.8481 28.2823 24.6838 26.7949 26.1713C25.3074 27.6587 24.4717 29.6762 24.4717 31.7797Z" stroke="#B7E6F5" stroke-width="3.33333" stroke-linecap="round" stroke-linejoin="round"/>
</svg>
