<svg width="134" height="120" viewBox="0 0 134 120" fill="none" xmlns="http://www.w3.org/2000/svg">
<path d="M66.5947 116.624H96.5791C96.912 116.624 96.9689 116.154 96.6522 116.073C91.625 114.81 80.6367 103.405 80.4661 96.8972" stroke="#16AFE0" stroke-width="6" stroke-miterlimit="10"/>
<path d="M66.5941 116.624H36.6098C36.2768 116.624 36.2199 116.154 36.5367 116.073C41.5638 114.81 52.5521 103.405 52.7227 96.8972" stroke="#16AFE0" stroke-width="6" stroke-miterlimit="10"/>
<path d="M123.055 92.1295H10.1341C6.27647 92.1295 3.1416 89.0131 3.1416 85.1601C3.1416 82.3513 3.1416 79.5505 3.1416 76.7417C3.1416 54.6274 3.1416 32.5212 3.1416 10.4069C3.1416 9.94552 3.19032 7.47668 5.1882 5.47732C6.45514 4.21457 8.20125 3.4375 10.1341 3.4375H123.055C126.912 3.4375 130.047 6.5539 130.047 10.4069V85.1601C130.047 89.005 126.92 92.1295 123.055 92.1295Z" stroke="#16AFE0" stroke-width="6" stroke-miterlimit="10"/>
<path d="M3.1416 83.5735H130.047" stroke="#16AFE0" stroke-width="6" stroke-miterlimit="10"/>
<path d="M129.486 83.5643H3.70312V89.0813L7.82714 92.5295H123.712L128.222 89.8679L130.328 86.506L129.486 83.5643Z" fill="#16AFE0"/>
<path d="M66.4893 96.9295H52.2767V101.215L48.0643 107.518L38.3779 116.343H66.4893H96.0751L89.4771 111.721L84.4233 106.398L80.7018 96.9295H66.4893Z" fill="#16AFE0"/>
</svg>
