<svg width="293" height="51" viewBox="0 0 293 51" fill="none" xmlns="http://www.w3.org/2000/svg">
<rect y="0.0498047" width="293" height="50" rx="8" fill="#FAFAFA"/>
<path d="M35.1221 20.5557C35.9834 20.5557 36.6943 20.6605 37.2549 20.8701C37.82 21.0798 38.2393 21.3988 38.5127 21.8271C38.7907 22.2555 38.9297 22.8001 38.9297 23.4609C38.9297 23.9531 38.8385 24.3724 38.6562 24.7188C38.474 25.0651 38.2347 25.3522 37.9385 25.5801C37.6423 25.8079 37.3255 25.9902 36.9883 26.127L39.8252 30.5498H37.9727L35.5596 26.5439H33.9531V30.5498H32.3125V20.5557H35.1221ZM35.0127 21.9229H33.9531V25.1904H35.0879C35.849 25.1904 36.4004 25.0492 36.7422 24.7666C37.0885 24.484 37.2617 24.0671 37.2617 23.5156C37.2617 22.9368 37.0771 22.5267 36.708 22.2852C36.3434 22.0436 35.7783 21.9229 35.0127 21.9229ZM46.9141 30.5498H41.2539V20.5557H46.9141V21.9365H42.8945V24.6504H46.6611V26.0244H42.8945V29.1621H46.9141V30.5498ZM53.1074 25.1221H56.8398V30.1396C56.3158 30.3128 55.7734 30.4473 55.2129 30.543C54.6523 30.6387 54.0234 30.6865 53.3262 30.6865C52.3099 30.6865 51.4486 30.486 50.7422 30.085C50.0404 29.6794 49.5072 29.0938 49.1426 28.3281C48.778 27.5579 48.5957 26.6305 48.5957 25.5459C48.5957 24.5023 48.7985 23.5977 49.2041 22.832C49.6097 22.0618 50.1999 21.4671 50.9746 21.0479C51.7493 20.624 52.6882 20.4121 53.791 20.4121C54.3333 20.4121 54.8574 20.4668 55.3633 20.5762C55.8737 20.681 56.3408 20.8268 56.7646 21.0137L56.1904 22.3672C55.8532 22.2077 55.4749 22.0732 55.0557 21.9639C54.6364 21.8545 54.2012 21.7998 53.75 21.7998C53.0345 21.7998 52.417 21.9548 51.8975 22.2646C51.3825 22.5745 50.986 23.012 50.708 23.5771C50.43 24.1377 50.291 24.8008 50.291 25.5664C50.291 26.3092 50.4027 26.9609 50.626 27.5215C50.8493 28.082 51.1979 28.5195 51.6719 28.834C52.1504 29.1439 52.7679 29.2988 53.5244 29.2988C53.9027 29.2988 54.224 29.2783 54.4883 29.2373C54.7526 29.1963 54.9964 29.1507 55.2197 29.1006V26.5234H53.1074V25.1221ZM59.2324 30.5498V20.5557H60.873V30.5498H59.2324ZM69.2812 27.8291C69.2812 28.4215 69.1354 28.932 68.8438 29.3604C68.5566 29.7887 68.1419 30.1169 67.5996 30.3447C67.0618 30.5726 66.4193 30.6865 65.6719 30.6865C65.3073 30.6865 64.9587 30.666 64.626 30.625C64.2933 30.584 63.9788 30.5247 63.6826 30.4473C63.391 30.3652 63.1243 30.2673 62.8828 30.1533V28.6084C63.2884 28.7861 63.7419 28.9479 64.2432 29.0938C64.7445 29.235 65.2549 29.3057 65.7744 29.3057C66.1982 29.3057 66.5492 29.251 66.8271 29.1416C67.1097 29.0277 67.3193 28.8682 67.4561 28.6631C67.5928 28.4535 67.6611 28.2096 67.6611 27.9316C67.6611 27.6354 67.5814 27.3848 67.4219 27.1797C67.2624 26.9746 67.0208 26.7878 66.6973 26.6191C66.3783 26.446 65.9772 26.2614 65.4941 26.0654C65.166 25.9333 64.8516 25.7829 64.5508 25.6143C64.2546 25.4456 63.9902 25.2474 63.7578 25.0195C63.5254 24.7917 63.3408 24.5228 63.2041 24.2129C63.0719 23.8984 63.0059 23.5293 63.0059 23.1055C63.0059 22.5404 63.1403 22.0573 63.4092 21.6562C63.6826 21.2552 64.0654 20.9476 64.5576 20.7334C65.0544 20.5192 65.6331 20.4121 66.2939 20.4121C66.818 20.4121 67.3102 20.4668 67.7705 20.5762C68.2354 20.6855 68.6911 20.8405 69.1377 21.041L68.6182 22.3604C68.208 22.1917 67.8092 22.0573 67.4219 21.957C67.0391 21.8568 66.6471 21.8066 66.2461 21.8066C65.8997 21.8066 65.6058 21.859 65.3643 21.9639C65.1227 22.0687 64.9382 22.2168 64.8105 22.4082C64.6875 22.5951 64.626 22.8184 64.626 23.0781C64.626 23.3698 64.6966 23.6159 64.8379 23.8164C64.9837 24.0124 65.207 24.1924 65.5078 24.3564C65.8132 24.5205 66.2051 24.7028 66.6836 24.9033C67.235 25.1312 67.7021 25.3704 68.085 25.6211C68.4723 25.8717 68.7686 26.1725 68.9736 26.5234C69.1787 26.8698 69.2812 27.305 69.2812 27.8291ZM74.6748 30.5498H73.0273V21.9502H70.1016V20.5557H77.5938V21.9502H74.6748V30.5498ZM81.9346 20.5557C82.7959 20.5557 83.5068 20.6605 84.0674 20.8701C84.6325 21.0798 85.0518 21.3988 85.3252 21.8271C85.6032 22.2555 85.7422 22.8001 85.7422 23.4609C85.7422 23.9531 85.651 24.3724 85.4688 24.7188C85.2865 25.0651 85.0472 25.3522 84.751 25.5801C84.4548 25.8079 84.138 25.9902 83.8008 26.127L86.6377 30.5498H84.7852L82.3721 26.5439H80.7656V30.5498H79.125V20.5557H81.9346ZM81.8252 21.9229H80.7656V25.1904H81.9004C82.6615 25.1904 83.2129 25.0492 83.5547 24.7666C83.901 24.484 84.0742 24.0671 84.0742 23.5156C84.0742 22.9368 83.8896 22.5267 83.5205 22.2852C83.1559 22.0436 82.5908 21.9229 81.8252 21.9229ZM94.2598 30.5498L93.2822 27.7744H89.4609L88.4834 30.5498H86.7539L90.4727 20.5146H92.291L96.0029 30.5498H94.2598ZM92.8584 26.3662L91.9082 23.6318C91.8717 23.5133 91.8193 23.347 91.751 23.1328C91.6826 22.9141 91.6143 22.693 91.5459 22.4697C91.4775 22.2419 91.4206 22.0505 91.375 21.8955C91.3294 22.0824 91.2725 22.292 91.2041 22.5244C91.1403 22.7523 91.0765 22.9665 91.0127 23.167C90.9535 23.3675 90.9079 23.5225 90.876 23.6318L89.9189 26.3662H92.8584ZM100.132 20.5557C100.993 20.5557 101.704 20.6605 102.265 20.8701C102.83 21.0798 103.249 21.3988 103.522 21.8271C103.8 22.2555 103.939 22.8001 103.939 23.4609C103.939 23.9531 103.848 24.3724 103.666 24.7188C103.484 25.0651 103.244 25.3522 102.948 25.5801C102.652 25.8079 102.335 25.9902 101.998 26.127L104.835 30.5498H102.982L100.569 26.5439H98.9629V30.5498H97.3223V20.5557H100.132ZM100.022 21.9229H98.9629V25.1904H100.098C100.859 25.1904 101.41 25.0492 101.752 24.7666C102.098 24.484 102.271 24.0671 102.271 23.5156C102.271 22.9368 102.087 22.5267 101.718 22.2852C101.353 22.0436 100.788 21.9229 100.022 21.9229ZM112.033 27.8291C112.033 28.4215 111.887 28.932 111.596 29.3604C111.309 29.7887 110.894 30.1169 110.352 30.3447C109.814 30.5726 109.171 30.6865 108.424 30.6865C108.059 30.6865 107.711 30.666 107.378 30.625C107.045 30.584 106.731 30.5247 106.435 30.4473C106.143 30.3652 105.876 30.2673 105.635 30.1533V28.6084C106.04 28.7861 106.494 28.9479 106.995 29.0938C107.496 29.235 108.007 29.3057 108.526 29.3057C108.95 29.3057 109.301 29.251 109.579 29.1416C109.862 29.0277 110.071 28.8682 110.208 28.6631C110.345 28.4535 110.413 28.2096 110.413 27.9316C110.413 27.6354 110.333 27.3848 110.174 27.1797C110.014 26.9746 109.773 26.7878 109.449 26.6191C109.13 26.446 108.729 26.2614 108.246 26.0654C107.918 25.9333 107.604 25.7829 107.303 25.6143C107.007 25.4456 106.742 25.2474 106.51 25.0195C106.277 24.7917 106.093 24.5228 105.956 24.2129C105.824 23.8984 105.758 23.5293 105.758 23.1055C105.758 22.5404 105.892 22.0573 106.161 21.6562C106.435 21.2552 106.817 20.9476 107.31 20.7334C107.806 20.5192 108.385 20.4121 109.046 20.4121C109.57 20.4121 110.062 20.4668 110.522 20.5762C110.987 20.6855 111.443 20.8405 111.89 21.041L111.37 22.3604C110.96 22.1917 110.561 22.0573 110.174 21.957C109.791 21.8568 109.399 21.8066 108.998 21.8066C108.652 21.8066 108.358 21.859 108.116 21.9639C107.875 22.0687 107.69 22.2168 107.562 22.4082C107.439 22.5951 107.378 22.8184 107.378 23.0781C107.378 23.3698 107.449 23.6159 107.59 23.8164C107.736 24.0124 107.959 24.1924 108.26 24.3564C108.565 24.5205 108.957 24.7028 109.436 24.9033C109.987 25.1312 110.454 25.3704 110.837 25.6211C111.224 25.8717 111.521 26.1725 111.726 26.5234C111.931 26.8698 112.033 27.305 112.033 27.8291ZM119.621 30.5498H113.961V20.5557H119.621V21.9365H115.602V24.6504H119.368V26.0244H115.602V29.1621H119.621V30.5498ZM129.677 21.8066C129.198 21.8066 128.77 21.8932 128.392 22.0664C128.018 22.2396 127.701 22.4902 127.441 22.8184C127.182 23.1419 126.983 23.5361 126.847 24.001C126.71 24.4613 126.642 24.9808 126.642 25.5596C126.642 26.3343 126.751 27.002 126.97 27.5625C127.188 28.1185 127.521 28.5469 127.968 28.8477C128.414 29.1439 128.979 29.292 129.663 29.292C130.087 29.292 130.499 29.251 130.9 29.1689C131.301 29.0869 131.716 28.9753 132.145 28.834V30.2285C131.739 30.388 131.329 30.5042 130.914 30.5771C130.499 30.6501 130.021 30.6865 129.479 30.6865C128.458 30.6865 127.61 30.4746 126.936 30.0508C126.266 29.627 125.764 29.0299 125.432 28.2598C125.104 27.4896 124.939 26.5872 124.939 25.5527C124.939 24.7962 125.044 24.1035 125.254 23.4746C125.464 22.8457 125.769 22.3034 126.17 21.8477C126.571 21.3874 127.065 21.0342 127.653 20.7881C128.246 20.5374 128.923 20.4121 129.684 20.4121C130.185 20.4121 130.677 20.4691 131.16 20.583C131.648 20.6924 132.099 20.8496 132.514 21.0547L131.939 22.4082C131.593 22.2441 131.231 22.1029 130.853 21.9844C130.474 21.8659 130.082 21.8066 129.677 21.8066ZM143.164 25.5391C143.164 26.3092 143.066 27.0111 142.87 27.6445C142.679 28.2734 142.389 28.8158 142.002 29.2715C141.615 29.7227 141.129 30.0713 140.546 30.3174C139.963 30.5635 139.279 30.6865 138.495 30.6865C137.698 30.6865 137.005 30.5635 136.417 30.3174C135.834 30.0713 135.348 29.7204 134.961 29.2646C134.578 28.8089 134.291 28.2643 134.1 27.6309C133.908 26.9974 133.812 26.2956 133.812 25.5254C133.812 24.4954 133.981 23.5977 134.318 22.832C134.66 22.0618 135.177 21.4648 135.87 21.041C136.567 20.6126 137.447 20.3984 138.509 20.3984C139.548 20.3984 140.411 20.6104 141.1 21.0342C141.788 21.458 142.303 22.055 142.645 22.8252C142.991 23.5908 143.164 24.4954 143.164 25.5391ZM135.535 25.5391C135.535 26.3092 135.64 26.9769 135.85 27.542C136.059 28.1025 136.381 28.5355 136.813 28.8408C137.251 29.1416 137.812 29.292 138.495 29.292C139.183 29.292 139.744 29.1416 140.177 28.8408C140.61 28.5355 140.929 28.1025 141.134 27.542C141.339 26.9769 141.441 26.3092 141.441 25.5391C141.441 24.3678 141.207 23.4518 140.737 22.791C140.272 22.1257 139.53 21.793 138.509 21.793C137.825 21.793 137.262 21.9434 136.82 22.2441C136.383 22.5449 136.059 22.9756 135.85 23.5361C135.64 24.0921 135.535 24.7598 135.535 25.5391ZM153.65 30.5498H151.634L146.739 22.5723H146.678C146.696 22.8411 146.712 23.126 146.726 23.4268C146.744 23.7275 146.757 24.0374 146.767 24.3564C146.78 24.6755 146.792 24.999 146.801 25.3271V30.5498H145.311V20.5557H147.313L152.201 28.4785H152.249C152.24 28.2461 152.229 27.9795 152.215 27.6787C152.201 27.3779 152.188 27.068 152.174 26.749C152.165 26.4255 152.158 26.1133 152.153 25.8125V20.5557H153.65V30.5498ZM163.945 25.1221H167.678V30.1396C167.154 30.3128 166.611 30.4473 166.051 30.543C165.49 30.6387 164.861 30.6865 164.164 30.6865C163.148 30.6865 162.286 30.486 161.58 30.085C160.878 29.6794 160.345 29.0938 159.98 28.3281C159.616 27.5579 159.434 26.6305 159.434 25.5459C159.434 24.5023 159.636 23.5977 160.042 22.832C160.448 22.0618 161.038 21.4671 161.812 21.0479C162.587 20.624 163.526 20.4121 164.629 20.4121C165.171 20.4121 165.695 20.4668 166.201 20.5762C166.712 20.681 167.179 20.8268 167.603 21.0137L167.028 22.3672C166.691 22.2077 166.313 22.0732 165.894 21.9639C165.474 21.8545 165.039 21.7998 164.588 21.7998C163.872 21.7998 163.255 21.9548 162.735 22.2646C162.22 22.5745 161.824 23.012 161.546 23.5771C161.268 24.1377 161.129 24.8008 161.129 25.5664C161.129 26.3092 161.241 26.9609 161.464 27.5215C161.687 28.082 162.036 28.5195 162.51 28.834C162.988 29.1439 163.606 29.2988 164.362 29.2988C164.741 29.2988 165.062 29.2783 165.326 29.2373C165.59 29.1963 165.834 29.1507 166.058 29.1006V26.5234H163.945V25.1221ZM178.943 25.5391C178.943 26.3092 178.845 27.0111 178.649 27.6445C178.458 28.2734 178.169 28.8158 177.781 29.2715C177.394 29.7227 176.909 30.0713 176.325 30.3174C175.742 30.5635 175.058 30.6865 174.274 30.6865C173.477 30.6865 172.784 30.5635 172.196 30.3174C171.613 30.0713 171.128 29.7204 170.74 29.2646C170.357 28.8089 170.07 28.2643 169.879 27.6309C169.688 26.9974 169.592 26.2956 169.592 25.5254C169.592 24.4954 169.76 23.5977 170.098 22.832C170.439 22.0618 170.957 21.4648 171.649 21.041C172.347 20.6126 173.226 20.3984 174.288 20.3984C175.327 20.3984 176.191 20.6104 176.879 21.0342C177.567 21.458 178.082 22.055 178.424 22.8252C178.77 23.5908 178.943 24.4954 178.943 25.5391ZM171.314 25.5391C171.314 26.3092 171.419 26.9769 171.629 27.542C171.839 28.1025 172.16 28.5355 172.593 28.8408C173.03 29.1416 173.591 29.292 174.274 29.292C174.963 29.292 175.523 29.1416 175.956 28.8408C176.389 28.5355 176.708 28.1025 176.913 27.542C177.118 26.9769 177.221 26.3092 177.221 25.5391C177.221 24.3678 176.986 23.4518 176.517 22.791C176.052 22.1257 175.309 21.793 174.288 21.793C173.604 21.793 173.042 21.9434 172.6 22.2441C172.162 22.5449 171.839 22.9756 171.629 23.5361C171.419 24.0921 171.314 24.7598 171.314 25.5391ZM189.963 25.5391C189.963 26.3092 189.865 27.0111 189.669 27.6445C189.478 28.2734 189.188 28.8158 188.801 29.2715C188.413 29.7227 187.928 30.0713 187.345 30.3174C186.761 30.5635 186.078 30.6865 185.294 30.6865C184.496 30.6865 183.804 30.5635 183.216 30.3174C182.632 30.0713 182.147 29.7204 181.76 29.2646C181.377 28.8089 181.09 28.2643 180.898 27.6309C180.707 26.9974 180.611 26.2956 180.611 25.5254C180.611 24.4954 180.78 23.5977 181.117 22.832C181.459 22.0618 181.976 21.4648 182.669 21.041C183.366 20.6126 184.246 20.3984 185.308 20.3984C186.347 20.3984 187.21 20.6104 187.898 21.0342C188.587 21.458 189.102 22.055 189.443 22.8252C189.79 23.5908 189.963 24.4954 189.963 25.5391ZM182.334 25.5391C182.334 26.3092 182.439 26.9769 182.648 27.542C182.858 28.1025 183.179 28.5355 183.612 28.8408C184.05 29.1416 184.61 29.292 185.294 29.292C185.982 29.292 186.543 29.1416 186.976 28.8408C187.409 28.5355 187.728 28.1025 187.933 27.542C188.138 26.9769 188.24 26.3092 188.24 25.5391C188.24 24.3678 188.006 23.4518 187.536 22.791C187.071 22.1257 186.328 21.793 185.308 21.793C184.624 21.793 184.061 21.9434 183.619 22.2441C183.182 22.5449 182.858 22.9756 182.648 23.5361C182.439 24.0921 182.334 24.7598 182.334 25.5391ZM196.143 25.1221H199.875V30.1396C199.351 30.3128 198.809 30.4473 198.248 30.543C197.688 30.6387 197.059 30.6865 196.361 30.6865C195.345 30.6865 194.484 30.486 193.777 30.085C193.076 29.6794 192.542 29.0938 192.178 28.3281C191.813 27.5579 191.631 26.6305 191.631 25.5459C191.631 24.5023 191.834 23.5977 192.239 22.832C192.645 22.0618 193.235 21.4671 194.01 21.0479C194.785 20.624 195.723 20.4121 196.826 20.4121C197.368 20.4121 197.893 20.4668 198.398 20.5762C198.909 20.681 199.376 20.8268 199.8 21.0137L199.226 22.3672C198.888 22.2077 198.51 22.0732 198.091 21.9639C197.672 21.8545 197.236 21.7998 196.785 21.7998C196.07 21.7998 195.452 21.9548 194.933 22.2646C194.418 22.5745 194.021 23.012 193.743 23.5771C193.465 24.1377 193.326 24.8008 193.326 25.5664C193.326 26.3092 193.438 26.9609 193.661 27.5215C193.884 28.082 194.233 28.5195 194.707 28.834C195.186 29.1439 195.803 29.2988 196.56 29.2988C196.938 29.2988 197.259 29.2783 197.523 29.2373C197.788 29.1963 198.032 29.1507 198.255 29.1006V26.5234H196.143V25.1221ZM202.268 30.5498V20.5557H203.908V29.1553H208.153V30.5498H202.268ZM215.543 30.5498H209.883V20.5557H215.543V21.9365H211.523V24.6504H215.29V26.0244H211.523V29.1621H215.543V30.5498Z" fill="#222631"/>
<path d="M259.9 25.4146C259.9 24.2771 259.798 23.1833 259.608 22.1333H244.5V28.3385H253.133C252.761 30.3437 251.631 32.0427 249.932 33.1802V37.2052H255.117C258.15 34.4125 259.9 30.3 259.9 25.4146Z" fill="#4285F4"/>
<path d="M244.5 41.0914C248.831 41.0914 252.462 39.6549 255.117 37.2049L249.932 33.1799C248.496 34.1424 246.658 34.7112 244.5 34.7112C240.322 34.7112 236.785 31.8893 235.524 28.0977H230.165V32.2539C232.804 37.4966 238.229 41.0914 244.5 41.0914Z" fill="#34A853"/>
<path d="M235.524 28.0978C235.203 27.1353 235.021 26.1072 235.021 25.0499C235.021 23.9926 235.203 22.9645 235.524 22.002V17.8457H230.165C229.042 20.0811 228.457 22.5483 228.458 25.0499C228.458 27.6384 229.078 30.0884 230.165 32.254L235.524 28.0978Z" fill="#FBBC05"/>
<path d="M244.5 15.3885C246.855 15.3885 248.97 16.1979 250.632 17.7875L255.233 13.1864C252.455 10.5979 248.824 9.0083 244.5 9.0083C238.229 9.0083 232.804 12.6031 230.165 17.8458L235.524 22.0021C236.785 18.2104 240.322 15.3885 244.5 15.3885Z" fill="#EA4335"/>
</svg>
