<svg width="16" height="17" viewBox="0 0 16 17" fill="none" xmlns="http://www.w3.org/2000/svg">
<g id="close-square_svgrepo.com">
<path id="Vector" d="M1.33301 8.50016C1.33301 5.35746 1.33301 3.78612 2.30932 2.80981C3.28563 1.8335 4.85697 1.8335 7.99967 1.8335C11.1423 1.8335 12.7137 1.8335 13.69 2.80981C14.6663 3.78612 14.6663 5.35746 14.6663 8.50016C14.6663 11.6428 14.6663 13.2142 13.69 14.1905C12.7137 15.1668 11.1423 15.1668 7.99967 15.1668C4.85697 15.1668 3.28563 15.1668 2.30932 14.1905C1.33301 13.2142 1.33301 11.6428 1.33301 8.50016Z" stroke="#E8F7FC"/>
<path id="Vector_2" d="M9.66635 6.83302L6.33302 10.1663M6.33301 6.83301L9.66635 10.1663" stroke="#E8F7FC" stroke-linecap="round"/>
</g>
</svg>
