<svg width="22" height="19" viewBox="0 0 22 19" fill="none" xmlns="http://www.w3.org/2000/svg">
<path d="M1 1.3198L2.28 0.0498047L19 16.7698L17.73 18.0498L14.65 14.9698C13.5 15.3498 12.28 15.5498 11 15.5498C6 15.5498 1.73 12.4398 0 8.0498C0.69 6.2898 1.79 4.7398 3.19 3.5098L1 1.3198ZM11 5.0498C11.7956 5.0498 12.5587 5.36587 13.1213 5.92848C13.6839 6.49109 14 7.25416 14 8.0498C14.0005 8.39037 13.943 8.72854 13.83 9.0498L10 5.2198C10.3213 5.10679 10.6594 5.0493 11 5.0498ZM11 0.549805C16 0.549805 20.27 3.6598 22 8.0498C21.1834 10.1227 19.7966 11.9221 18 13.2398L16.58 11.8098C17.9629 10.8533 19.0783 9.55891 19.82 8.0498C19.0117 6.39967 17.7565 5.00944 16.1974 4.03716C14.6382 3.06488 12.8375 2.54957 11 2.5498C9.91 2.5498 8.84 2.7298 7.84 3.0498L6.3 1.5198C7.74 0.899804 9.33 0.549805 11 0.549805ZM2.18 8.0498C2.98835 9.69994 4.24345 11.0902 5.80264 12.0625C7.36182 13.0347 9.16251 13.55 11 13.5498C11.69 13.5498 12.37 13.4798 13 13.3398L10.72 11.0498C10.0242 10.9752 9.37482 10.6647 8.87997 10.1698C8.38512 9.67498 8.07458 9.02564 8 8.3298L4.6 4.9198C3.61 5.7698 2.78 6.8298 2.18 8.0498Z" fill="#595959"/>
</svg>
