<svg width="17" height="12" viewBox="0 0 17 12" fill="none" xmlns="http://www.w3.org/2000/svg">
<g id="Group 79">
<path id="Vector" d="M8.5 8.5C9.88071 8.5 11 7.38071 11 6C11 4.61929 9.88071 3.5 8.5 3.5C7.11929 3.5 6 4.61929 6 6C6 7.38071 7.11929 8.5 8.5 8.5Z" stroke="white"/>
<path id="Vector_2" d="M15.3233 5.11192C15.6468 5.50467 15.8085 5.701 15.8085 6C15.8085 6.299 15.6468 6.49533 15.3233 6.88808C14.1399 8.32492 11.5297 11 8.49997 11C5.47019 11 2.86001 8.32492 1.67661 6.88808C1.35314 6.49533 1.19141 6.299 1.19141 6C1.19141 5.701 1.35314 5.50467 1.67661 5.11192C2.86001 3.67512 5.47019 1 8.49997 1C11.5297 1 14.1399 3.67512 15.3233 5.11192Z" stroke="white"/>
</g>
</svg>
