<svg width="36" height="36" viewBox="0 0 36 36" fill="none" xmlns="http://www.w3.org/2000/svg">
<g id="Frame 303">
<rect width="36" height="36" fill="#222631" fill-opacity="0.75"/>
<path id="Vector" d="M7.84615 6.00185L13.3846 6.00738C13.6294 6.00738 13.8642 6.10464 14.0373 6.27775C14.2104 6.45086 14.3077 6.68565 14.3077 6.93046C14.3077 7.17528 14.2104 7.41007 14.0373 7.58318C13.8642 7.75629 13.6294 7.85354 13.3846 7.85354L7.84615 7.848V13.3846C7.84615 13.6294 7.7489 13.8642 7.57579 14.0373C7.40268 14.2104 7.16789 14.3077 6.92308 14.3077C6.67826 14.3077 6.44347 14.2104 6.27036 14.0373C6.09725 13.8642 6 13.6294 6 13.3846V6H7.84615V6.00185ZM7.84615 29.9982V30H6V22.6154C6 22.3706 6.09725 22.1358 6.27036 21.9627C6.44347 21.7896 6.67826 21.6923 6.92308 21.6923C7.16789 21.6923 7.40268 21.7896 7.57579 21.9627C7.7489 22.1358 7.84615 22.3706 7.84615 22.6154V28.152L13.3846 28.1465C13.6294 28.1465 13.8642 28.2437 14.0373 28.4168C14.2104 28.5899 14.3077 28.8247 14.3077 29.0695C14.3077 29.3144 14.2104 29.5491 14.0373 29.7223C13.8642 29.8954 13.6294 29.9926 13.3846 29.9926L7.84615 29.9982ZM28.1538 6.00185V6H30V13.3846C30 13.6294 29.9027 13.8642 29.7296 14.0373C29.5565 14.2104 29.3217 14.3077 29.0769 14.3077C28.8321 14.3077 28.5973 14.2104 28.4242 14.0373C28.2511 13.8642 28.1538 13.6294 28.1538 13.3846V7.848L22.6154 7.85354C22.3706 7.85354 22.1358 7.75629 21.9627 7.58318C21.7896 7.41007 21.6923 7.17528 21.6923 6.93046C21.6923 6.68565 21.7896 6.45086 21.9627 6.27775C22.1358 6.10464 22.3706 6.00738 22.6154 6.00738L28.1538 6.00185ZM28.1538 29.9982L22.6154 29.9926C22.3706 29.9926 22.1358 29.8954 21.9627 29.7223C21.7896 29.5491 21.6923 29.3144 21.6923 29.0695C21.6923 28.8247 21.7896 28.5899 21.9627 28.4168C22.1358 28.2437 22.3706 28.1465 22.6154 28.1465L28.1538 28.152V22.6154C28.1538 22.3706 28.2511 22.1358 28.4242 21.9627C28.5973 21.7896 28.8321 21.6923 29.0769 21.6923C29.3217 21.6923 29.5565 21.7896 29.7296 21.9627C29.9027 22.1358 30 22.3706 30 22.6154V30H28.1538V29.9982Z" fill="white"/>
</g>
</svg>
