<svg width="24" height="16" viewBox="0 0 24 16" fill="none" xmlns="http://www.w3.org/2000/svg">
<g id="Group">
<path id="Vector" d="M20.3602 13H19.0148C18.8455 12.9986 18.6836 12.9308 18.5639 12.8111C18.4442 12.6914 18.3764 12.5295 18.375 12.3602V11.0148C18.375 10.6585 18.6585 10.375 19.0148 10.375H20.3602C20.7165 10.375 21 10.6585 21 11.0148V12.3602C21.0005 12.4444 20.9843 12.5278 20.9523 12.6057C20.9203 12.6835 20.8732 12.7542 20.8137 12.8137C20.7542 12.8732 20.6835 12.9203 20.6057 12.9523C20.5278 12.9843 20.4444 13.0005 20.3602 13ZM17.5395 10H4.2105C4.08829 9.99941 3.97128 9.95049 3.885 9.86394C3.79873 9.77738 3.7502 9.66021 3.75 9.538V7.462C3.75 7.21225 3.954 7 4.2105 7H17.5395C17.7885 7 18 7.20475 18 7.462V9.5455C17.9997 9.60561 17.9876 9.66507 17.9642 9.72047C17.9409 9.77587 17.9069 9.82612 17.8641 9.86835C17.8213 9.91057 17.7706 9.94394 17.7149 9.96653C17.6592 9.98912 17.5996 10.0005 17.5395 10ZM4.5 8.5C4.5 8.59946 4.53951 8.69484 4.60984 8.76517C4.68016 8.83549 4.77554 8.875 4.875 8.875H13.125C13.2245 8.875 13.3198 8.83549 13.3902 8.76517C13.4605 8.69484 13.5 8.59946 13.5 8.5C13.5 8.40054 13.4605 8.30516 13.3902 8.23483C13.3198 8.16451 13.2245 8.125 13.125 8.125H4.875C4.77554 8.125 4.68016 8.16451 4.60984 8.23483C4.53951 8.30516 4.5 8.40054 4.5 8.5Z" fill="#16AFE0"/>
<path id="Vector_2" d="M3.186 0.25C2.54005 0.250794 1.92079 0.507801 1.4641 0.96463C1.00741 1.42146 0.750595 2.0408 0.75 2.68675V12.8125C0.750397 13.4586 1.00713 14.0781 1.46384 14.5351C1.92054 14.9921 2.53992 15.2492 3.186 15.25H20.814C21.134 15.2503 21.451 15.1875 21.7467 15.0651C22.0425 14.9427 22.3112 14.7632 22.5374 14.5369C22.7637 14.3106 22.9431 14.0418 23.0654 13.746C23.1877 13.4503 23.2504 13.1333 23.25 12.8132V2.6875C23.2496 2.04142 22.9929 1.42189 22.5362 0.964896C22.0795 0.507905 21.4601 0.250795 20.814 0.25H3.186ZM2.25 2.68675C2.25 2.17 2.6715 1.75 3.186 1.75H20.814C21.3285 1.75 21.75 2.17075 21.75 2.68675V3.25H2.25V2.68675ZM2.25 5.5H21.75V12.8132C21.75 13.3345 21.3308 13.75 20.814 13.75H3.186C2.93787 13.7492 2.70014 13.6502 2.52476 13.4747C2.34937 13.2992 2.25059 13.0614 2.25 12.8132V5.5Z" fill="#16AFE0"/>
</g>
</svg>
