<svg width="22" height="18" viewBox="0 0 22 18" fill="none" xmlns="http://www.w3.org/2000/svg">
<g id="Group">
<path id="Vector" d="M16 17C17.1046 17 18 16.1046 18 15C18 13.8954 17.1046 13 16 13C14.8954 13 14 13.8954 14 15C14 16.1046 14.8954 17 16 17Z" stroke="#16AFE0" stroke-width="1.5" stroke-linecap="round" stroke-linejoin="round"/>
<path id="Vector_2" d="M6 17C7.10457 17 8 16.1046 8 15C8 13.8954 7.10457 13 6 13C4.89543 13 4 13.8954 4 15C4 16.1046 4.89543 17 6 17Z" stroke="#16AFE0" stroke-width="1.5" stroke-linecap="round" stroke-linejoin="round"/>
<path id="Vector_3" d="M4 14.972C2.903 14.918 2.22 14.755 1.732 14.268C1.244 13.781 1.082 13.097 1.028 12M8 15H14M18 14.972C19.097 14.918 19.78 14.755 20.268 14.268C21 13.535 21 12.357 21 10V8H16.3C15.555 8 15.183 8 14.882 7.902C14.5818 7.80447 14.309 7.63728 14.0859 7.41412C13.8627 7.19096 13.6955 6.91815 13.598 6.618C13.5 6.317 13.5 5.945 13.5 5.2C13.5 4.083 13.5 3.525 13.353 3.073C13.2067 2.62277 12.9559 2.21356 12.6212 1.87882C12.2864 1.54408 11.8772 1.2933 11.427 1.147C10.975 1 10.417 1 9.3 1H1M1 5H7M1 8H5" stroke="#16AFE0" stroke-width="1.5" stroke-linecap="round" stroke-linejoin="round"/>
<path id="Vector_4" d="M13.5 3H15.321C16.777 3 17.504 3 18.096 3.354C18.689 3.707 19.034 4.348 19.724 5.63L21 8" stroke="#16AFE0" stroke-width="1.5" stroke-linecap="round" stroke-linejoin="round"/>
</g>
</svg>
