<svg width="36" height="36" viewBox="0 0 36 36" fill="none" xmlns="http://www.w3.org/2000/svg">
<g id="icono-cancelar">
<path id="Vector" d="M12.6 25.5L18 20.1L23.4 25.5L25.5 23.4L20.1 18L25.5 12.6L23.4 10.5L18 15.9L12.6 10.5L10.5 12.6L15.9 18L10.5 23.4L12.6 25.5ZM18 33C15.925 33 13.975 32.606 12.15 31.818C10.325 31.03 8.7375 29.9615 7.3875 28.6125C6.0375 27.2635 4.969 25.676 4.182 23.85C3.395 22.024 3.001 20.074 3 18C2.999 15.926 3.393 13.976 4.182 12.15C4.971 10.324 6.0395 8.7365 7.3875 7.3875C8.7355 6.0385 10.323 4.97 12.15 4.182C13.977 3.394 15.927 3 18 3C20.073 3 22.023 3.394 23.85 4.182C25.677 4.97 27.2645 6.0385 28.6125 7.3875C29.9605 8.7365 31.0295 10.324 31.8195 12.15C32.6095 13.976 33.003 15.926 33 18C32.997 20.074 32.603 22.024 31.818 23.85C31.033 25.676 29.9645 27.2635 28.6125 28.6125C27.2605 29.9615 25.673 31.0305 23.85 31.8195C22.027 32.6085 20.077 33.002 18 33ZM18 30C21.35 30 24.1875 28.8375 26.5125 26.5125C28.8375 24.1875 30 21.35 30 18C30 14.65 28.8375 11.8125 26.5125 9.4875C24.1875 7.1625 21.35 6 18 6C14.65 6 11.8125 7.1625 9.4875 9.4875C7.1625 11.8125 6 14.65 6 18C6 21.35 7.1625 24.1875 9.4875 26.5125C11.8125 28.8375 14.65 30 18 30Z" fill="#FAFAFA"/>
</g>
</svg>
