<svg width="22" height="20" viewBox="0 0 22 20" fill="none" xmlns="http://www.w3.org/2000/svg">
<g id="icono-mi-carrito-navbar">
<path id="Vector" d="M17.1562 15C17.4167 15 17.6608 15.0488 17.8887 15.1465C18.1165 15.2441 18.3151 15.3776 18.4844 15.5469C18.6536 15.7161 18.7871 15.9147 18.8848 16.1426C18.9824 16.3704 19.0312 16.6146 19.0312 16.875C19.0312 17.1354 18.9824 17.3796 18.8848 17.6074C18.7871 17.8353 18.6536 18.0339 18.4844 18.2031C18.3151 18.3724 18.1165 18.5059 17.8887 18.6035C17.6608 18.7012 17.4167 18.75 17.1562 18.75C16.8958 18.75 16.6517 18.7012 16.4238 18.6035C16.196 18.5059 15.9974 18.3724 15.8281 18.2031C15.6589 18.0339 15.5254 17.8353 15.4277 17.6074C15.3301 17.3796 15.2812 17.1354 15.2812 16.875C15.2812 16.6732 15.3171 16.4648 15.3887 16.25H10.1738C10.2454 16.4648 10.2812 16.6732 10.2812 16.875C10.2812 17.1354 10.2324 17.3796 10.1348 17.6074C10.0371 17.8353 9.90365 18.0339 9.73437 18.2031C9.5651 18.3724 9.36654 18.5059 9.13867 18.6035C8.91081 18.7012 8.66667 18.75 8.40625 18.75C8.14583 18.75 7.90169 18.7012 7.67383 18.6035C7.44596 18.5059 7.2474 18.3724 7.07812 18.2031C6.90885 18.0339 6.77539 17.8353 6.67773 17.6074C6.58008 17.3796 6.53125 17.1354 6.53125 16.875C6.53125 16.5169 6.62565 16.1849 6.81445 15.8789C7.00325 15.5729 7.26367 15.3418 7.5957 15.1855L3.37695 2.5H1.53125V1.25H4.27539L5.10547 3.75H21.5312L18.6211 12.5H8.02539L8.85547 15H17.1562ZM5.52539 5L7.60547 11.25H17.7129L19.793 5H5.52539ZM9.03125 16.875C9.03125 16.7057 8.9694 16.5592 8.8457 16.4355C8.722 16.3118 8.57552 16.25 8.40625 16.25C8.23698 16.25 8.09049 16.3118 7.9668 16.4355C7.8431 16.5592 7.78125 16.7057 7.78125 16.875C7.78125 17.0443 7.8431 17.1908 7.9668 17.3145C8.09049 17.4382 8.23698 17.5 8.40625 17.5C8.57552 17.5 8.722 17.4382 8.8457 17.3145C8.9694 17.1908 9.03125 17.0443 9.03125 16.875ZM17.1562 17.5C17.3255 17.5 17.472 17.4382 17.5957 17.3145C17.7194 17.1908 17.7812 17.0443 17.7812 16.875C17.7812 16.7057 17.7194 16.5592 17.5957 16.4355C17.472 16.3118 17.3255 16.25 17.1562 16.25C16.987 16.25 16.8405 16.3118 16.7168 16.4355C16.5931 16.5592 16.5312 16.7057 16.5312 16.875C16.5312 17.0443 16.5931 17.1908 16.7168 17.3145C16.8405 17.4382 16.987 17.5 17.1562 17.5Z" fill="white"/>
</g>
</svg>
