<svg width="33" height="32" viewBox="0 0 33 32" fill="none" xmlns="http://www.w3.org/2000/svg">
<g id="icono-mi-cuenta-navbar">
<path id="Vector" d="M7.18354 24.7268C8.55298 23.7408 10.0062 22.9616 11.5432 22.3891C13.0791 21.8156 14.7429 21.5288 16.5344 21.5288C18.326 21.5288 19.9897 21.8156 21.5256 22.3891C23.0616 22.9627 24.5148 23.7414 25.8853 24.7252C26.9486 23.6243 27.8041 22.3247 28.4518 20.8263C29.0995 19.3259 29.4233 17.6804 29.4233 15.8899C29.4233 12.3186 28.1683 9.27736 25.6581 6.76617C23.148 4.25499 20.1068 2.99993 16.5344 3.001C12.9621 3.00208 9.92081 4.25767 7.4107 6.76778C4.90059 9.27789 3.64554 12.3186 3.64554 15.8899C3.64554 17.6804 3.96937 19.3259 4.61704 20.8263C5.2647 22.3257 6.1202 23.6254 7.18354 24.7252M16.5344 16.6954C15.1779 16.6954 14.0329 16.2293 13.0995 15.297C12.1662 14.3647 11.7 13.2197 11.7011 11.8621C11.7022 10.5045 12.1683 9.35952 13.0995 8.42723C14.0308 7.49493 15.1757 7.02878 16.5344 7.02878C17.8931 7.02878 19.0381 7.49493 19.9693 8.42723C20.9005 9.35952 21.3667 10.5045 21.3678 11.8621C21.3688 13.2197 20.9027 14.3647 19.9693 15.297C19.0359 16.2293 17.891 16.6954 16.5344 16.6954ZM16.5344 30.3899C14.5119 30.3899 12.6189 30.0134 10.8553 29.2605C9.09163 28.5076 7.55678 27.4786 6.2507 26.1736C4.94463 24.8686 3.91567 23.3338 3.16381 21.5691C2.41196 19.8044 2.0355 17.9113 2.03443 15.8899C2.03335 13.8685 2.40981 11.9754 3.16381 10.2107C3.91781 8.44602 4.94678 6.91117 6.2507 5.60617C7.55678 4.30117 9.09163 3.27221 10.8553 2.51928C12.6189 1.76636 14.5119 1.38989 16.5344 1.38989C18.5569 1.38989 20.45 1.76636 22.2136 2.51928C23.9772 3.27221 25.5121 4.30117 26.8181 5.60617C28.1242 6.91117 29.1532 8.44602 29.905 10.2107C30.6569 11.9754 31.0333 13.8685 31.0344 15.8899C31.0355 17.9113 30.659 19.8044 29.905 21.5691C29.151 23.3338 28.1221 24.8686 26.8181 26.1736C25.5121 27.4786 23.9772 28.5076 22.2136 29.2605C20.45 30.0134 18.5569 30.3899 16.5344 30.3899Z" fill="#FAFAFA"/>
</g>
</svg>
