<svg width="24" height="25" viewBox="0 0 24 25" fill="none" xmlns="http://www.w3.org/2000/svg">
<g clip-path="url(#clip0_964_4146)">
<path d="M4.105 4.15448C4.105 4.15448 9.158 1.62948 11.684 0.365478C12.144 0.139678 12.6529 0.0314499 13.165 0.0504777C13.931 0.0974777 14.842 0.838478 14.842 0.838478L24 9.99748V19.7865H19.737V24.0495H9.789L0.789 15.0495C0.303 14.5495 0 13.8445 0 13.1545C0 12.8355 0.18 12.3365 0.316 12.0495L4.105 4.15448ZM4.784 4.83348V16.6205C4.786 17.1635 4.805 17.6445 5.282 18.1285L10.204 23.0495H18.737V18.7865L4.784 4.83348ZM16.839 4.15548C15.94 3.25948 15.03 2.37548 14.099 1.51248C13.797 1.24548 13.532 1.04448 13.029 1.05048C12.659 1.06448 12.159 1.24548 12.159 1.24548L6.341 4.15448L16.839 4.15548Z" fill="#16afe0"/>
</g>
<defs>
<clipPath id="clip0_964_4146">
<rect width="24" height="24" fill="white" transform="translate(0 0.0498047)"/>
</clipPath>
</defs>
</svg>
