<svg width="30" height="20" viewBox="0 0 30 20" fill="none" xmlns="http://www.w3.org/2000/svg">
<g id="Group">
<path id="Vector" d="M26.147 17H24.353C24.1273 16.9982 23.9114 16.9077 23.7519 16.7481C23.5923 16.5886 23.5018 16.3727 23.5 16.147V14.353C23.5 13.878 23.878 13.5 24.353 13.5H26.147C26.622 13.5 27 13.878 27 14.353V16.147C27.0007 16.2592 26.9791 16.3704 26.9364 16.4742C26.8938 16.578 26.831 16.6723 26.7516 16.7516C26.6723 16.831 26.578 16.8938 26.4742 16.9364C26.3704 16.9791 26.2592 17.0007 26.147 17ZM22.386 13H4.614C4.45105 12.9992 4.29504 12.934 4.18001 12.8186C4.06497 12.7032 4.00026 12.5469 4 12.384V9.616C4 9.283 4.272 9 4.614 9H22.386C22.718 9 23 9.273 23 9.616V12.394C22.9996 12.4741 22.9834 12.5534 22.9523 12.6273C22.9212 12.7012 22.8758 12.7682 22.8188 12.8245C22.7618 12.8808 22.6942 12.9252 22.6199 12.9554C22.5456 12.9855 22.4661 13.0007 22.386 13ZM5 11C5 11.1326 5.05268 11.2598 5.14645 11.3536C5.24021 11.4473 5.36739 11.5 5.5 11.5H16.5C16.6326 11.5 16.7598 11.4473 16.8536 11.3536C16.9473 11.2598 17 11.1326 17 11C17 10.8674 16.9473 10.7402 16.8536 10.6464C16.7598 10.5527 16.6326 10.5 16.5 10.5H5.5C5.36739 10.5 5.24021 10.5527 5.14645 10.6464C5.05268 10.7402 5 10.8674 5 11Z" fill="#16afe0"/>
<path id="Vector_2" d="M3.248 0C2.38673 0.00105901 1.56105 0.343735 0.952133 0.95284C0.343216 1.56194 0.00079388 2.38773 0 3.249V16.75C0.000529143 17.6114 0.342834 18.4375 0.95178 19.0468C1.56073 19.6561 2.38656 19.9989 3.248 20H26.752C27.1787 20.0004 27.6013 19.9166 27.9957 19.7535C28.39 19.5903 28.7482 19.351 29.0499 19.0492C29.3516 18.7474 29.5908 18.3891 29.7539 17.9947C29.9169 17.6004 30.0005 17.1777 30 16.751V3.25C29.9995 2.38856 29.6572 1.56252 29.0482 0.953195C28.4393 0.343874 27.6134 0.00105943 26.752 0H3.248ZM2 3.249C2 2.56 2.562 2 3.248 2H26.752C27.438 2 28 2.561 28 3.249V4H2V3.249ZM2 7H28V16.751C28 17.446 27.441 18 26.752 18H3.248C2.91716 17.9989 2.60019 17.867 2.36634 17.6329C2.1325 17.3989 2.00079 17.0818 2 16.751V7Z" fill="#16afe0"/>
</g>
</svg>
