<svg width="32" height="32" viewBox="0 0 32 32" fill="none" xmlns="http://www.w3.org/2000/svg">
<g id="icono-direcciones-micuenta">
<path id="Vector" d="M11.2525 23.9692C11.3697 24.0573 11.5031 24.1215 11.6451 24.1579C11.7872 24.1944 11.935 24.2025 12.0802 24.1818C12.2253 24.1611 12.365 24.1119 12.4912 24.0372C12.6173 23.9624 12.7275 23.8635 12.8154 23.7462C13.4907 22.8457 14.3664 22.1149 15.3731 21.6116C16.3798 21.1082 17.4899 20.8462 18.6154 20.8462C19.7409 20.8462 20.851 21.1082 21.8577 21.6116C22.8644 22.1149 23.7401 22.8457 24.4154 23.7462C24.5033 23.8633 24.6134 23.9621 24.7394 24.0367C24.8654 24.1113 25.0049 24.1604 25.15 24.1811C25.295 24.2018 25.4426 24.1938 25.5845 24.1574C25.7264 24.1211 25.8597 24.0571 25.9769 23.9692C26.0941 23.8813 26.1928 23.7712 26.2675 23.6452C26.3421 23.5192 26.3912 23.3797 26.4119 23.2347C26.4326 23.0897 26.4245 22.942 26.3882 22.8001C26.3518 22.6582 26.2879 22.5249 26.2 22.4077C25.2123 21.0836 23.8952 20.0411 22.3798 19.3836C23.2103 18.6253 23.7922 17.6337 24.0491 16.5388C24.3059 15.4439 24.2258 14.297 23.8191 13.2485C23.4125 12.1999 22.6983 11.2989 21.7704 10.6635C20.8425 10.0281 19.7442 9.68811 18.6196 9.68811C17.495 9.68811 16.3966 10.0281 15.4687 10.6635C14.5408 11.2989 13.8266 12.1999 13.42 13.2485C13.0133 14.297 12.9332 15.4439 13.1901 16.5388C13.4469 17.6337 14.0288 18.6253 14.8593 19.3836C13.3408 20.0398 12.0208 21.0825 11.0308 22.4077C10.8531 22.6442 10.7767 22.9415 10.8183 23.2344C10.8598 23.5272 11.016 23.7915 11.2525 23.9692ZM15.2692 15.2692C15.2692 14.6074 15.4655 13.9605 15.8332 13.4102C16.2008 12.8599 16.7234 12.431 17.3349 12.1778C17.9463 11.9245 18.6191 11.8583 19.2682 11.9874C19.9173 12.1165 20.5135 12.4352 20.9815 12.9031C21.4494 13.3711 21.7681 13.9673 21.8972 14.6164C22.0264 15.2655 21.9601 15.9383 21.7068 16.5497C21.4536 17.1612 21.0247 17.6838 20.4744 18.0515C19.9241 18.4191 19.2772 18.6154 18.6154 18.6154C17.7279 18.6154 16.8768 18.2628 16.2493 17.6353C15.6218 17.0078 15.2692 16.1567 15.2692 15.2692ZM28.6538 3H8.57692C7.98529 3 7.41788 3.23503 6.99953 3.65338C6.58118 4.07173 6.34615 4.63913 6.34615 5.23077V8.57692H4.11538C3.81957 8.57692 3.53586 8.69444 3.32669 8.90361C3.11751 9.11279 3 9.39649 3 9.69231C3 9.98813 3.11751 10.2718 3.32669 10.481C3.53586 10.6902 3.81957 10.8077 4.11538 10.8077H6.34615V16.3846H4.11538C3.81957 16.3846 3.53586 16.5021 3.32669 16.7113C3.11751 16.9205 3 17.2042 3 17.5C3 17.7958 3.11751 18.0795 3.32669 18.2887C3.53586 18.4979 3.81957 18.6154 4.11538 18.6154H6.34615V24.1923H4.11538C3.81957 24.1923 3.53586 24.3098 3.32669 24.519C3.11751 24.7282 3 25.0119 3 25.3077C3 25.6035 3.11751 25.8872 3.32669 26.0964C3.53586 26.3056 3.81957 26.4231 4.11538 26.4231H6.34615V29.7692C6.34615 30.3609 6.58118 30.9283 6.99953 31.3466C7.41788 31.765 7.98529 32 8.57692 32H28.6538C29.2455 32 29.8129 31.765 30.2312 31.3466C30.6496 30.9283 30.8846 30.3609 30.8846 29.7692V5.23077C30.8846 4.63913 30.6496 4.07173 30.2312 3.65338C29.8129 3.23503 29.2455 3 28.6538 3ZM28.6538 29.7692H8.57692V5.23077H28.6538V29.7692Z" fill="#16afe0"/>
</g>
</svg>
