<svg width="132" height="133" viewBox="0 0 132 133" fill="none" xmlns="http://www.w3.org/2000/svg">
<g id="Asset 1 1" clip-path="url(#clip0_2121_4087)">
<g id="Layer_3">
<path id="Vector" d="M123 1.5249H9C4.58172 1.5249 1 5.10662 1 9.5249V123.525C1 127.943 4.58172 131.525 9 131.525H123C127.418 131.525 131 127.943 131 123.525V9.5249C131 5.10662 127.418 1.5249 123 1.5249Z" fill="#128CB3" stroke="#E8F7FC" stroke-width="2" stroke-miterlimit="10"/>
<path id="Vector 18" d="M66.3895 68.0107L61.5044 60.7009V54.6094H54.1768V43.6447H46.8491V36.944H54.1768V30.2434H78.6022V36.944H85.9299V43.6447H78.6022V54.6094H71.2746V60.7009L66.3895 68.0107ZM66.3895 68.0107V71.3205C66.3895 73.5297 64.5986 75.3205 62.3895 75.3205H57.8313C55.813 75.3205 54.1768 76.9567 54.1768 78.9751V78.9751C54.1768 80.9934 55.813 82.6296 57.8313 82.6296H62.7342C64.753 82.6296 66.3895 84.2661 66.3895 86.2849V86.2849C66.3895 88.3036 64.753 89.9401 62.7342 89.9401H46.2385C46.2385 89.9401 46.2385 88.7218 46.2385 86.8944C46.2385 83.1897 42.3676 78.4759 38.1267 74.4232C31.716 68.297 26.5608 60.4432 27.2129 51.6C27.4814 47.9591 28.0467 44.2174 29.1407 41.2084C32.598 31.6994 37.3908 26.6567 46.2385 21.7156C48.8281 20.2694 52.3357 19.1657 55.6646 18.3557C62.2952 16.7423 69.2352 16.9433 75.8173 18.7441C78.7594 19.549 81.7997 20.5514 84.0979 21.7156C93.5711 26.5144 99.8661 31.3002 103.638 41.2084C105.009 44.8099 105.17 49.4891 104.876 53.783C104.351 61.4381 99.2131 67.669 93.6634 72.9678C89.1529 77.2743 84.7086 82.9756 84.7086 88.7218C84.7086 90.2591 84.7086 93.252 84.7086 95.2515C84.7086 96.3561 83.8131 97.2504 82.7086 97.2504H51.1191C50.1098 97.2504 49.2917 98.0686 49.2917 99.0778V99.0778C49.2917 100.087 50.1099 100.905 51.1191 100.905H76.6364C77.7221 100.905 78.6022 101.785 78.6022 102.871V102.871C78.6022 103.967 77.7055 104.852 76.6093 104.837L58.4589 104.586C57.4471 104.572 56.6193 105.388 56.6193 106.4V106.4C56.6193 107.402 57.4317 108.215 58.4339 108.215H66.3895H71.7171C72.8217 108.215 73.7171 109.11 73.7171 110.215V113.525C73.7171 114.629 72.8217 115.525 71.7171 115.525H63.332C62.3227 115.525 61.5044 114.707 61.5044 113.697V113.697C61.5044 112.688 62.3227 111.87 63.332 111.87H68.832" stroke="#E8F7FC" stroke-width="2" stroke-linecap="round"/>
</g>
</g>
<defs>
<clipPath id="clip0_2121_4087">
<rect width="132" height="132" fill="white" transform="translate(0 0.524902)"/>
</clipPath>
</defs>
</svg>
