<svg width="64" height="65" viewBox="0 0 64 65" fill="none" xmlns="http://www.w3.org/2000/svg">
<g id="material-symbols:call">
<path id="Vector" d="M53.2 56.0498C47.6444 56.0498 42.1556 54.8391 36.7333 52.4178C31.3111 49.9965 26.3778 46.5627 21.9333 42.1165C17.4889 37.6702 14.056 32.7369 11.6347 27.3165C9.21333 21.896 8.00178 16.4071 8 10.8498C8 10.0498 8.26667 9.38314 8.8 8.8498C9.33333 8.31647 10 8.0498 10.8 8.0498H21.6C22.2222 8.0498 22.7778 8.26136 23.2667 8.68447C23.7556 9.10758 24.0444 9.60714 24.1333 10.1831L25.8667 19.5165C25.9556 20.2276 25.9333 20.8276 25.8 21.3165C25.6667 21.8054 25.4222 22.2276 25.0667 22.5831L18.6 29.1165C19.4889 30.7609 20.544 32.3494 21.7653 33.8818C22.9867 35.4143 24.3316 36.8925 25.8 38.3165C27.1778 39.6943 28.6222 40.9725 30.1333 42.1511C31.6444 43.3298 33.2444 44.4071 34.9333 45.3831L41.2 39.1165C41.6 38.7165 42.1227 38.4169 42.768 38.2178C43.4133 38.0187 44.0462 37.9627 44.6667 38.0498L53.8667 39.9165C54.4889 40.0942 55 40.4169 55.4 40.8845C55.8 41.352 56 41.8738 56 42.4498V53.2498C56 54.0498 55.7333 54.7165 55.2 55.2498C54.6667 55.7831 54 56.0498 53.2 56.0498Z" fill="#16AFE0"/>
</g>
</svg>
