<svg width="64" height="65" viewBox="0 0 64 65" fill="none" xmlns="http://www.w3.org/2000/svg">
<g id="material-symbols:robot-2-outline">
<path id="Vector" d="M10.6667 56.0498V42.7165C10.6667 41.2498 11.1893 39.9947 12.2347 38.9511C13.28 37.9076 14.5351 37.3849 16 37.3831H48C49.4667 37.3831 50.7227 37.9058 51.768 38.9511C52.8133 39.9965 53.3351 41.2516 53.3333 42.7165V56.0498H10.6667ZM24 34.7165C20.3111 34.7165 17.1671 33.416 14.568 30.8151C11.9689 28.2142 10.6684 25.0702 10.6667 21.3831C10.6649 17.696 11.9653 14.552 14.568 11.9511C17.1707 9.35025 20.3147 8.0498 24 8.0498H40C43.6889 8.0498 46.8338 9.35025 49.4347 11.9511C52.0355 14.552 53.3351 17.696 53.3333 21.3831C53.3315 25.0702 52.0311 28.2151 49.432 30.8178C46.8329 33.4205 43.6889 34.72 40 34.7165H24ZM16 50.7165H48V42.7165H16V50.7165ZM24 29.3831H40C42.2222 29.3831 44.1111 28.6054 45.6667 27.0498C47.2222 25.4942 48 23.6054 48 21.3831C48 19.1609 47.2222 17.272 45.6667 15.7165C44.1111 14.1609 42.2222 13.3831 40 13.3831H24C21.7778 13.3831 19.8889 14.1609 18.3333 15.7165C16.7778 17.272 16 19.1609 16 21.3831C16 23.6054 16.7778 25.4942 18.3333 27.0498C19.8889 28.6054 21.7778 29.3831 24 29.3831ZM24 24.0498C24.7555 24.0498 25.3893 23.7938 25.9013 23.2818C26.4133 22.7698 26.6684 22.1369 26.6667 21.3831C26.6649 20.6294 26.4089 19.9965 25.8987 19.4845C25.3884 18.9725 24.7555 18.7165 24 18.7165C23.2444 18.7165 22.6115 18.9725 22.1013 19.4845C21.5911 19.9965 21.3351 20.6294 21.3333 21.3831C21.3315 22.1369 21.5875 22.7707 22.1013 23.2845C22.6151 23.7983 23.248 24.0534 24 24.0498ZM40 24.0498C40.7555 24.0498 41.3893 23.7938 41.9013 23.2818C42.4133 22.7698 42.6684 22.1369 42.6667 21.3831C42.6649 20.6294 42.4089 19.9965 41.8987 19.4845C41.3884 18.9725 40.7555 18.7165 40 18.7165C39.2444 18.7165 38.6115 18.9725 38.1013 19.4845C37.5911 19.9965 37.3351 20.6294 37.3333 21.3831C37.3315 22.1369 37.5875 22.7707 38.1013 23.2845C38.6151 23.7983 39.248 24.0534 40 24.0498Z" fill="#16AFE0"/>
</g>
</svg>
