<svg width="64" height="65" viewBox="0 0 64 65" fill="none" xmlns="http://www.w3.org/2000/svg">
<g id="material-symbols:mail-outline">
<path id="Vector" d="M10.6667 53.383C9.20001 53.383 7.9449 52.8612 6.90134 51.8176C5.85779 50.7741 5.33512 49.5181 5.33334 48.0496V16.0496C5.33334 14.583 5.85601 13.3279 6.90134 12.2843C7.94668 11.2408 9.20179 10.7181 10.6667 10.7163H53.3333C54.8 10.7163 56.056 11.239 57.1013 12.2843C58.1467 13.3296 58.6685 14.5848 58.6667 16.0496V48.0496C58.6667 49.5163 58.1449 50.7723 57.1013 51.8176C56.0578 52.863 54.8018 53.3848 53.3333 53.383H10.6667ZM32 34.7163L10.6667 21.383V48.0496H53.3333V21.383L32 34.7163ZM32 29.383L53.3333 16.0496H10.6667L32 29.383ZM10.6667 21.383V16.0496V48.0496V21.383Z" fill="#16AFE0"/>
</g>
</svg>
